<?xml version="1.0" standalone="no"?>
<!DOCTYPE svg PUBLIC "-//W3C//DTD SVG 20010904//EN"
 "http://www.w3.org/TR/2001/REC-SVG-20010904/DTD/svg10.dtd">
<svg version="1.0" xmlns="http://www.w3.org/2000/svg"
 width="698.000000pt" height="784.000000pt" viewBox="0 0 698.000000 784.000000"
 preserveAspectRatio="xMidYMid meet">
<metadata>
Created by potrace 1.11, written by Peter Selinger 2001-2013
</metadata>
<g transform="translate(0.000000,784.000000) scale(0.100000,-0.100000)"
fill="#000000" stroke="none">
<path d="M1910 7459 c0 -7 -3 -9 -7 -6 -3 4 -13 1 -21 -6 -13 -10 -14 -9 -7 3
9 16 10 17 -57 -40 -15 -13 -25 -27 -22 -31 3 -5 -3 -6 -12 -2 -12 4 -15 3
-10 -5 4 -7 1 -15 -8 -18 -9 -3 -16 -11 -16 -17 0 -6 -8 -19 -17 -30 -10 -11
-13 -18 -7 -14 6 3 11 0 11 -7 0 -8 -7 -12 -15 -8 -10 3 -13 1 -8 -6 4 -7 2
-12 -5 -12 -8 0 -7 -5 2 -17 11 -13 11 -15 1 -9 -11 6 -13 1 -11 -20 2 -16 0
-35 -4 -42 -5 -6 -4 -12 2 -12 6 0 7 -7 4 -17 -4 -11 -3 -14 6 -9 8 5 10 0 7
-18 -3 -14 0 -26 5 -26 6 0 7 -4 4 -10 -3 -5 -2 -10 4 -10 6 0 13 -11 17 -24
3 -14 14 -32 25 -42 10 -9 16 -21 13 -25 -3 -5 2 -6 10 -3 10 4 16 1 16 -10 0
-10 5 -13 17 -9 10 4 14 2 10 -4 -4 -6 0 -13 8 -17 8 -3 15 -1 15 5 0 6 8 2
18 -9 21 -24 72 -38 72 -20 0 9 3 9 11 1 12 -12 51 -5 43 8 -7 13 19 7 28 -6
5 -6 8 -5 8 3 0 7 5 10 10 7 6 -3 10 -1 10 4 0 6 3 10 8 10 19 -3 33 2 27 11
-3 6 0 10 7 10 8 0 20 9 28 19 7 11 17 18 22 15 5 -3 8 -2 7 3 -5 28 2 45 17
39 8 -3 13 -2 10 2 -3 5 1 19 8 33 7 13 10 31 8 38 -3 9 0 11 8 6 8 -5 11 -3
8 6 -3 8 -1 25 4 38 5 15 5 28 -2 36 -8 9 -8 15 -1 20 8 4 6 15 -3 33 -7 15
-11 33 -8 41 3 9 0 11 -8 6 -10 -6 -12 -1 -8 20 4 21 1 29 -13 32 -10 3 -17 9
-14 13 6 9 -41 50 -58 50 -7 0 -19 9 -27 19 -7 11 -17 18 -22 15 -4 -3 -8 -1
-8 5 0 6 -7 7 -17 4 -11 -4 -14 -3 -9 5 5 9 1 10 -16 4 -27 -9 -70 -8 -87 2
-6 4 -11 2 -11 -5z m60 -70 c0 10 39 3 56 -10 6 -5 15 -5 19 -1 5 4 5 2 2 -4
-4 -7 0 -15 9 -18 8 -3 12 -11 8 -17 -4 -7 -3 -9 3 -6 16 10 43 -32 43 -68 0
-21 5 -35 13 -35 8 0 7 -4 -3 -10 -12 -8 -12 -10 -1 -10 11 0 11 -3 0 -17 -12
-15 -12 -16 1 -8 13 8 13 7 0 -9 -8 -11 -13 -30 -12 -43 2 -13 -2 -31 -10 -40
-11 -14 -11 -16 2 -9 8 4 6 0 -5 -9 -11 -9 -19 -23 -17 -32 2 -9 -1 -12 -8 -8
-7 4 -13 -1 -16 -12 -6 -23 -53 -53 -84 -53 -22 0 -93 64 -82 74 3 3 -2 6 -12
6 -9 0 -15 4 -12 9 4 5 1 11 -5 13 -6 2 -12 18 -12 36 -1 18 -5 32 -9 32 -11
0 -8 159 3 166 5 3 6 10 3 16 -4 7 -2 8 4 4 7 -4 12 -1 12 8 0 8 5 18 12 22 7
5 8 3 3 -6 -5 -9 -4 -11 3 -6 7 4 12 14 12 22 0 8 4 13 9 10 5 -3 14 1 21 9 9
11 17 12 31 4 11 -6 19 -6 19 0z"/>
<path d="M3471 7443 c-7 -12 -10 -14 -11 -4 0 11 -3 11 -15 1 -8 -7 -15 -8
-15 -3 0 5 -7 10 -15 10 -8 0 -15 -4 -15 -8 0 -4 -9 -6 -20 -4 -16 3 -18 0
-12 -13 4 -9 7 -26 7 -37 -1 -11 4 -26 9 -34 8 -11 8 -13 -1 -7 -18 10 -16 -2
2 -21 12 -11 19 -12 29 -4 7 6 16 9 19 6 4 -3 5 -2 2 1 -2 4 2 16 11 28 11 16
25 21 59 21 37 1 42 -1 32 -14 -7 -9 -7 -12 -1 -8 7 4 11 -6 12 -28 1 -22 -3
-35 -11 -35 -8 0 -7 -4 3 -10 13 -9 13 -11 0 -20 -8 -5 -10 -10 -5 -10 6 0 12
-20 12 -45 1 -30 -2 -43 -9 -39 -7 5 -8 2 -2 -7 14 -23 15 -81 1 -72 -7 4 -6
0 2 -10 10 -13 11 -20 2 -31 -9 -11 -9 -16 0 -22 8 -4 -3 -20 -32 -46 -24 -22
-38 -37 -30 -32 11 5 13 3 7 -12 -4 -10 -4 -15 0 -11 4 4 14 2 21 -5 11 -9 16
-9 23 1 5 10 9 10 15 2 5 -9 10 -9 21 0 11 9 14 8 14 -2 0 -11 2 -11 10 1 9
13 11 13 20 0 8 -12 10 -12 10 -1 0 10 3 11 14 2 11 -9 16 -9 21 0 6 8 10 7
16 -2 7 -11 9 -11 9 -1 0 7 4 11 9 8 5 -3 11 1 15 9 3 8 2 15 -3 15 -5 0 -8 7
-7 16 0 9 -7 18 -17 20 -10 1 -24 7 -31 14 -17 13 -26 80 -11 80 5 0 4 4 -4 9
-9 6 -10 11 -2 15 6 4 8 12 4 19 -11 18 -9 105 2 100 7 -2 10 24 9 75 l-2 78
50 1 c40 0 55 -5 74 -24 13 -13 24 -29 24 -35 0 -6 3 -9 6 -5 4 3 13 0 20 -8
8 -7 23 -11 35 -8 14 4 17 8 9 13 -7 4 -10 12 -6 18 3 6 0 23 -8 39 -8 15 -20
40 -27 56 -9 19 -15 24 -21 15 -4 -7 -8 -8 -8 -2 0 5 -11 10 -25 10 -14 0 -25
-4 -25 -9 0 -4 -5 -5 -12 -1 -6 4 -26 7 -43 7 -17 0 -37 -3 -43 -7 -7 -4 -12
-3 -12 1 0 5 -11 9 -25 9 -14 0 -25 -4 -25 -10 0 -6 -4 -6 -11 1 -7 7 -22 8
-38 4 -30 -9 -54 -4 -45 10 3 5 3 9 0 9 -3 0 -10 -8 -15 -17z"/>
<path d="M2397 7442 c-9 -2 -14 -8 -10 -14 4 -7 0 -9 -10 -5 -10 3 -17 2 -17
-4 0 -6 -4 -8 -9 -5 -4 3 -17 -2 -27 -10 -10 -9 -13 -13 -6 -9 7 4 12 0 12
-10 0 -11 5 -15 15 -11 9 3 15 0 15 -10 0 -8 3 -13 8 -11 4 3 7 -6 7 -19 0
-13 -4 -24 -8 -24 -5 0 -5 -9 -2 -20 3 -11 2 -20 -3 -20 -14 0 -8 -33 7 -38 9
-3 9 -7 1 -17 -8 -9 -8 -15 0 -20 5 -3 10 -11 10 -16 0 -6 -4 -7 -10 -4 -6 3
-7 -1 -4 -9 3 -9 2 -16 -3 -16 -5 0 -9 -31 -7 -70 1 -38 -2 -70 -7 -70 -5 0
-9 -6 -9 -13 0 -7 -8 -17 -19 -24 -20 -12 -35 -52 -20 -54 5 -1 15 -2 22 -3 6
-1 18 2 25 7 8 6 17 5 27 -3 11 -9 15 -9 15 -1 0 7 5 9 10 6 6 -3 10 -1 10 5
0 7 7 10 15 7 8 -4 17 -2 21 4 4 7 10 6 19 -1 9 -8 17 -6 29 6 16 15 16 17 -1
31 -10 8 -12 11 -4 7 9 -5 12 -3 7 5 -5 7 -13 8 -23 2 -28 -15 -57 23 -58 74
0 25 3 45 6 45 3 0 5 30 5 67 -1 57 2 66 17 69 11 1 16 0 14 -3 -3 -3 5 -16
19 -30 13 -13 21 -30 18 -36 -4 -7 -4 -9 1 -5 9 9 35 -16 35 -33 0 -7 9 -22
19 -33 11 -12 21 -28 23 -36 2 -8 10 -22 20 -30 9 -9 18 -24 20 -35 3 -21 39
-61 51 -57 4 1 7 -7 7 -17 0 -10 7 -21 15 -25 8 -3 15 0 15 7 0 9 2 9 8 -1 6
-9 11 -7 19 10 6 13 11 28 12 33 2 6 7 16 13 23 7 8 7 12 -2 12 -7 0 -10 7 -6
15 3 8 1 15 -5 15 -6 0 -6 6 0 18 5 9 9 20 10 25 1 4 1 10 2 15 1 4 0 22 -1
40 -1 18 4 40 12 49 7 9 8 14 2 10 -8 -4 -12 12 -13 53 0 32 4 62 9 65 8 5 7
11 0 20 -16 19 -4 50 26 70 21 14 23 18 10 30 -18 18 -40 20 -30 3 6 -10 4
-10 -7 -2 -19 15 -111 16 -102 0 5 -7 2 -7 -8 1 -8 6 -19 9 -25 5 -12 -9 -12
-31 1 -34 21 -4 63 -53 51 -60 -7 -5 -6 -8 4 -8 13 0 13 -1 0 -10 -10 -6 -11
-10 -2 -10 6 0 12 -7 12 -16 0 -9 -5 -12 -12 -8 -8 5 -8 3 -2 -7 14 -21 14
-90 0 -82 -6 3 -6 0 2 -8 17 -18 15 -39 -3 -39 -8 0 -15 8 -15 18 0 13 -2 14
-9 3 -7 -11 -10 -9 -16 8 -3 11 -11 21 -16 21 -6 0 -7 5 -3 12 4 7 3 8 -5 4
-6 -4 -14 0 -17 8 -3 9 -9 14 -13 11 -4 -2 -7 6 -6 18 1 12 -12 35 -32 54 -18
19 -33 38 -33 43 0 6 -5 10 -11 10 -5 0 -8 4 -4 9 3 5 -4 12 -14 16 -13 4 -18
11 -14 22 4 11 2 14 -5 9 -7 -4 -12 -1 -12 8 0 9 -6 16 -14 16 -8 0 -16 4 -18
8 -1 4 -11 6 -21 4z"/>
<path d="M4711 7442 c-6 -2 -11 -10 -11 -18 0 -8 -5 -14 -11 -14 -5 0 -7 -4
-4 -10 3 -5 0 -10 -7 -10 -10 0 -10 -2 1 -9 9 -6 10 -11 2 -15 -6 -4 -11 -17
-11 -30 0 -12 -6 -28 -12 -35 -11 -11 -10 -12 2 -6 12 6 13 5 3 -6 -7 -7 -13
-21 -13 -31 0 -10 -5 -18 -11 -18 -5 0 -7 -4 -4 -10 3 -5 2 -10 -3 -10 -5 0
-8 -13 -7 -30 1 -16 -1 -27 -6 -24 -5 3 -9 -5 -9 -17 0 -12 -13 -43 -29 -68
-16 -25 -32 -56 -36 -69 -3 -12 -11 -20 -16 -17 -9 6 -13 -8 -10 -34 2 -8 -2
-10 -11 -5 -11 6 -11 5 0 -8 8 -9 20 -14 28 -11 8 3 14 0 14 -7 0 -6 4 -9 9
-5 5 3 13 1 16 -5 5 -8 11 -8 20 0 10 8 14 7 18 -2 4 -11 6 -10 6 0 1 7 5 11
10 7 10 -5 61 36 61 49 0 11 -27 36 -33 30 -8 -8 -17 28 -12 51 2 11 4 24 4
28 1 5 7 5 14 1 9 -6 9 -4 1 7 -11 13 -2 59 11 59 4 0 3 -6 -1 -12 -6 -10 -5
-10 7 -1 12 10 18 10 29 0 10 -9 11 -9 6 1 -4 6 -2 12 3 12 6 0 11 -4 11 -10
0 -6 9 -6 25 0 20 8 25 6 25 -6 0 -9 5 -12 13 -8 6 4 9 4 5 -1 -4 -4 -2 -15 5
-23 10 -13 9 -14 -3 -7 -9 5 -8 0 4 -13 12 -14 14 -22 7 -22 -7 0 -9 -5 -6
-10 4 -6 12 -8 18 -4 7 3 5 0 -4 -8 -9 -7 -14 -19 -11 -27 3 -10 0 -12 -12 -8
-20 8 -48 -15 -44 -35 5 -23 22 -37 30 -24 5 7 8 7 8 0 0 -6 10 -10 23 -9 12
1 28 -3 36 -9 11 -8 13 -8 8 0 -4 7 0 14 8 18 8 3 17 1 20 -4 4 -6 11 -10 16
-10 6 0 8 4 5 8 -3 5 1 9 9 9 8 0 15 -4 15 -8 0 -4 9 -5 21 -2 16 4 17 8 7 14
-10 7 -10 9 0 9 6 0 12 7 12 15 0 8 -5 15 -11 15 -5 0 -7 5 -4 10 3 6 1 10 -5
10 -6 0 -9 3 -7 8 6 9 -19 33 -27 25 -3 -4 -6 1 -6 10 0 9 -5 17 -12 17 -6 0
-9 3 -5 6 3 4 0 19 -8 34 -8 15 -11 31 -7 34 3 4 -2 4 -12 0 -15 -6 -17 -4
-10 7 12 20 14 39 3 39 -5 0 -8 3 -8 8 3 18 -2 33 -9 28 -4 -2 -9 5 -9 16 -1
12 -6 24 -10 27 -4 3 -10 17 -11 31 -2 14 -5 29 -5 35 -1 5 -8 16 -15 24 -7 7
-11 20 -8 28 3 8 2 12 -2 9 -4 -3 -14 4 -21 16 -7 11 -8 17 -2 14 6 -4 9 -1 6
6 -5 13 -31 18 -54 10z"/>
<path d="M5175 7440 c-4 -6 -14 -9 -22 -6 -8 3 -12 2 -9 -3 3 -5 -4 -11 -15
-14 -16 -4 -19 -2 -14 11 4 12 3 14 -5 6 -6 -6 -12 -20 -15 -33 -3 -16 0 -21
13 -19 9 2 16 -2 15 -9 -2 -7 3 -10 11 -7 7 3 16 -2 20 -11 4 -11 2 -14 -7 -9
-8 5 -7 2 2 -9 11 -14 11 -17 0 -17 -12 0 -12 -2 0 -9 10 -7 11 -13 1 -31 -7
-12 -8 -20 -2 -16 11 7 10 -99 -1 -110 -4 -4 -7 -12 -7 -18 0 -6 5 -4 10 4 5
8 10 11 10 6 0 -5 -7 -18 -17 -28 -9 -10 -11 -18 -5 -18 6 0 9 -6 7 -12 -3 -7
-7 -30 -8 -51 -2 -21 -11 -43 -21 -50 -10 -7 -20 -29 -22 -48 -3 -22 -1 -29 5
-20 6 9 15 11 27 6 27 -12 45 -14 40 -6 -3 4 8 12 25 18 19 8 31 8 35 1 4 -6
10 -5 15 3 6 9 9 10 9 2 0 -6 8 -10 17 -9 10 2 17 12 17 24 0 12 -2 21 -5 20
-3 -2 -14 4 -24 12 -15 12 -17 12 -10 1 5 -10 4 -12 -3 -7 -7 4 -12 14 -12 22
0 8 -4 12 -10 9 -5 -3 -11 0 -11 7 -5 45 -4 74 4 85 4 6 3 14 -3 18 -6 3 -8
11 -5 16 4 5 0 9 -7 10 -7 0 -4 4 7 9 11 5 14 9 8 9 -7 1 -13 10 -13 22 0 13
4 18 12 13 6 -4 8 -3 5 4 -10 15 1 39 18 39 8 0 15 -3 15 -7 0 -4 11 -20 24
-35 14 -16 23 -32 20 -37 -3 -4 0 -8 5 -8 6 0 11 -7 11 -16 0 -8 5 -12 10 -9
6 3 10 -3 10 -14 0 -12 5 -21 11 -21 5 0 7 -5 4 -10 -3 -6 1 -13 9 -16 9 -3
16 -15 16 -26 0 -10 5 -16 10 -13 6 3 10 -1 10 -9 0 -9 5 -16 11 -16 5 0 8 -4
5 -9 -3 -5 1 -12 10 -15 9 -4 14 -13 10 -22 -3 -8 -2 -12 3 -9 5 3 12 -4 16
-15 4 -11 11 -18 16 -15 5 4 9 0 9 -7 0 -7 11 -13 24 -13 13 0 22 3 20 7 -2 3
1 8 7 10 8 3 12 28 11 71 0 49 3 65 11 60 7 -4 6 0 -2 10 -7 9 -11 28 -9 42 3
14 1 25 -6 25 -6 0 -2 7 8 15 14 11 16 15 5 15 -10 1 -9 5 5 15 14 11 16 15 5
15 -12 0 -12 2 1 10 13 9 13 10 0 10 -13 0 -13 1 0 10 14 9 6 15 -15 10 -5 -1
-1 8 9 19 11 12 15 21 10 21 -5 0 -9 14 -9 30 0 17 3 30 6 30 3 0 5 11 4 25
-2 14 2 28 7 32 7 4 8 1 3 -7 -6 -9 -4 -11 4 -5 7 4 11 16 8 26 -3 10 0 20 6
22 6 2 -26 3 -71 3 -48 -1 -82 3 -82 9 0 6 -7 2 -14 -8 -11 -14 -15 -15 -19
-5 -3 7 -6 3 -6 -9 -1 -13 2 -22 7 -21 4 1 21 -11 39 -27 23 -21 32 -39 31
-60 0 -16 5 -43 11 -58 13 -34 14 -40 3 -33 -5 3 -9 -1 -9 -9 0 -8 4 -15 8
-15 4 0 6 -12 5 -27 -3 -30 -36 -46 -36 -18 0 9 -7 15 -16 13 -10 -2 -18 5
-20 17 -2 11 -12 27 -23 37 -12 9 -21 20 -21 26 0 5 -11 21 -25 36 -14 15 -22
32 -19 38 4 6 3 9 -2 6 -5 -3 -15 0 -22 8 -7 8 -10 14 -6 14 4 0 -5 14 -22 32
-16 17 -23 28 -16 24 6 -4 12 -4 12 1 0 8 -54 36 -66 33 -4 -1 -10 4 -14 10
-6 9 -9 9 -15 0z"/>
<path d="M4046 7432 c-3 -5 -20 -8 -39 -7 -29 2 -33 -1 -33 -21 0 -13 6 -24
13 -24 7 0 13 -7 13 -16 0 -8 3 -13 8 -10 11 6 5 -69 -7 -92 -7 -13 -7 -22 1
-30 9 -9 9 -12 1 -12 -6 0 -9 -9 -5 -22 4 -16 2 -19 -9 -13 -8 5 -5 -1 5 -13
11 -12 14 -22 8 -22 -10 0 -10 -7 -2 -45 1 -5 1 -12 0 -15 -1 -3 -3 -32 -4
-65 -4 -77 -4 -77 -18 -69 -7 4 -5 -2 5 -13 9 -11 14 -23 10 -26 -3 -4 -1 -7
5 -7 7 0 12 5 12 12 0 9 3 9 12 0 8 -8 15 -9 25 -1 10 9 13 8 13 -2 0 -11 2
-11 9 0 8 12 12 12 25 2 15 -12 20 -8 17 12 0 4 3 7 8 7 6 0 9 9 8 19 0 11 -6
17 -14 14 -20 -8 -32 38 -30 113 2 65 4 69 25 68 12 -1 22 3 22 8 0 5 6 6 13
1 17 -11 41 -10 49 2 5 7 8 6 8 -1 0 -6 17 -10 40 -9 23 1 44 -3 47 -8 4 -6 0
-7 -8 -3 -9 5 -9 3 2 -6 16 -14 23 -128 7 -128 -4 0 -8 -7 -8 -16 0 -8 -5 -12
-11 -9 -6 4 -13 -2 -16 -14 -3 -11 -10 -18 -15 -15 -6 4 -2 -6 7 -20 12 -19
21 -24 28 -17 7 7 15 7 26 -2 12 -10 13 -9 6 3 -8 13 -7 13 8 1 13 -10 17 -10
17 -1 0 9 3 10 13 1 10 -8 17 -7 25 1 9 9 12 9 12 -2 0 -9 5 -8 16 6 8 10 13
12 9 4 -4 -8 1 -6 9 5 15 18 15 20 -6 32 -13 7 -17 12 -9 13 9 0 6 7 -9 20
-18 16 -20 23 -11 34 8 10 9 16 1 21 -7 4 -7 13 1 27 6 11 7 18 2 15 -5 -3 -9
25 -9 64 1 38 4 69 9 69 4 0 5 6 0 13 -11 18 -13 38 -2 31 5 -3 9 9 9 26 0 18
4 29 10 25 6 -3 10 3 10 14 0 11 5 23 10 26 7 4 7 12 0 24 -5 10 -6 22 -2 27
4 5 -1 2 -10 -5 -13 -10 -18 -10 -18 -2 0 7 -4 9 -10 6 -5 -3 -10 -2 -10 3 0
6 -7 13 -16 16 -8 3 -12 2 -9 -4 4 -6 -6 -10 -21 -10 -15 0 -24 -3 -21 -7 4
-3 -1 -12 -11 -20 -13 -10 -14 -13 -2 -11 8 2 14 -3 12 -11 -1 -7 3 -19 9 -27
7 -9 8 -14 1 -14 -7 0 -8 -10 -2 -30 5 -16 5 -30 1 -30 -5 0 -6 -11 -4 -24 3
-13 0 -27 -7 -31 -18 -11 -90 -11 -94 0 -3 7 -5 7 -5 0 -1 -6 -24 -9 -55 -7
-47 3 -54 6 -51 23 2 10 0 19 -4 19 -5 0 -11 11 -13 25 -3 14 -1 25 4 25 5 0
7 4 4 9 -9 14 12 63 24 56 6 -4 7 1 3 11 -5 13 -2 16 9 11 12 -4 14 -1 11 14
-3 10 -9 16 -14 13 -5 -3 -9 0 -9 6 0 8 -11 9 -31 5 -22 -5 -29 -4 -25 4 4 6
5 11 2 11 -3 0 -7 -4 -10 -8z"/>
<path d="M1325 7416 c-14 -17 -18 -39 -5 -31 6 4 21 -1 32 -12 15 -12 19 -13
14 -3 -4 8 -1 7 7 -3 11 -13 15 -45 16 -113 1 -52 2 -98 2 -102 1 -4 0 -11 -1
-17 -1 -5 -1 -39 0 -75 1 -57 -14 -140 -35 -192 -4 -10 -14 -18 -22 -18 -8 0
-12 -4 -9 -9 3 -4 -6 -13 -19 -19 -16 -8 -25 -8 -25 -1 0 6 -6 6 -18 0 -14 -7
-22 -5 -32 10 -13 17 -69 25 -71 9 0 -3 -2 -13 -4 -22 -2 -10 1 -20 6 -24 5
-3 7 -10 4 -15 -4 -5 1 -9 9 -9 9 0 16 -5 16 -11 0 -5 4 -8 9 -5 5 4 12 0 14
-6 4 -10 6 -10 6 0 1 7 6 10 11 7 6 -3 10 -1 10 6 0 8 5 7 17 -2 11 -10 14
-10 9 -1 -4 7 -2 12 6 12 8 0 20 -6 27 -12 11 -10 13 -10 7 0 -5 8 1 12 18 12
14 0 31 9 39 20 8 11 17 17 22 12 5 -4 5 -2 2 4 -4 6 5 20 18 30 17 13 23 25
19 38 -4 12 -2 16 5 12 6 -4 12 -2 12 3 1 6 3 16 4 21 1 6 3 19 4 31 1 13 5
18 14 13 8 -5 8 -2 -2 9 -7 9 -9 17 -4 17 11 0 13 30 3 45 -3 6 -7 36 -8 68
-2 45 1 57 10 51 9 -5 8 -2 -1 10 -13 15 -13 19 0 27 10 6 10 9 2 9 -7 0 -13
9 -13 19 0 11 6 22 13 24 8 4 8 6 0 6 -11 1 -10 8 15 81 3 8 4 18 4 23 -1 4 1
6 6 5 4 -2 17 7 29 19 l21 21 -31 16 c-18 8 -36 11 -40 7 -10 -10 -49 -2 -43
8 2 3 -13 7 -35 7 -25 1 -36 -3 -32 -10 5 -7 2 -7 -8 0 -10 9 -16 9 -24 0z"/>
<path d="M3053 7417 c-4 -6 -1 -7 7 -2 9 5 11 4 6 -3 -4 -7 -15 -12 -24 -12
-12 0 -13 -3 -5 -8 13 -8 12 -29 -1 -51 -7 -10 -5 -12 5 -7 8 5 8 2 -2 -6 -9
-7 -14 -18 -12 -25 2 -6 0 -14 -6 -17 -6 -4 -8 -13 -4 -21 3 -9 -1 -15 -8 -15
-11 0 -11 -3 1 -10 12 -7 12 -10 1 -10 -8 0 -11 -6 -7 -16 4 -11 2 -15 -6 -11
-8 2 -14 -4 -15 -17 -5 -52 -16 -85 -27 -79 -7 4 -7 2 1 -7 9 -10 6 -19 -18
-41 -17 -16 -29 -34 -27 -41 3 -7 -7 -23 -21 -36 -21 -19 -23 -25 -11 -32 10
-6 11 -10 3 -10 -7 0 -10 -7 -6 -16 4 -11 8 -12 13 -4 6 9 9 9 15 1 5 -9 10
-9 21 0 11 9 14 8 14 -2 0 -11 2 -11 10 1 8 12 11 13 19 1 6 -9 10 -10 16 -2
5 8 11 9 19 2 9 -7 17 -4 29 9 21 25 21 25 0 50 -12 14 -19 16 -24 8 -4 -7 -7
7 -6 30 1 23 4 42 8 42 3 0 5 13 4 30 -1 16 2 35 6 42 5 7 9 9 9 5 0 -4 10 -3
21 4 16 8 20 8 14 -1 -6 -9 -2 -9 15 0 14 8 25 9 29 2 3 -5 15 -12 26 -14 11
-2 19 -11 19 -21 -1 -9 2 -17 6 -17 5 0 8 -23 8 -50 1 -29 -3 -48 -9 -45 -5 4
-9 1 -9 -5 0 -7 -6 -10 -14 -7 -12 5 -14 -11 -7 -44 0 -3 13 -11 27 -17 14 -7
23 -8 20 -3 -3 5 5 8 19 7 14 0 25 -5 25 -11 0 -5 5 -3 10 5 9 13 11 13 20 0
5 -9 10 -10 10 -3 0 13 18 12 39 -1 9 -6 12 -5 8 1 -4 6 0 13 8 17 25 9 17 45
-20 82 -20 19 -33 39 -30 45 4 5 1 9 -4 9 -6 0 -11 7 -11 15 0 8 -5 15 -11 15
-5 0 -7 5 -4 10 3 6 3 16 -2 23 -4 6 -8 25 -9 41 -1 15 -7 32 -13 36 -7 4 -12
9 -12 11 2 11 -12 49 -18 49 -4 0 -7 8 -8 18 -2 29 -8 47 -16 53 -4 3 -9 18
-11 33 -1 15 -8 32 -14 38 -14 14 -71 18 -79 5z"/>
<path d="M4666 6579 c3 -5 -6 -9 -19 -9 -14 0 -30 -7 -37 -15 -7 -9 -15 -13
-17 -11 -3 3 -18 -9 -34 -25 -16 -16 -29 -27 -29 -23 0 13 -45 -41 -80 -96
-33 -51 -35 -59 -32 -128 1 -41 5 -78 7 -83 3 -4 0 -11 -5 -14 -8 -5 -6 -13 5
-25 9 -10 14 -24 10 -29 -3 -6 -1 -11 4 -11 6 0 11 -9 11 -20 0 -11 5 -20 12
-20 6 0 8 -3 5 -6 -6 -6 35 -44 47 -44 12 0 44 -38 38 -45 -4 -3 2 -3 12 1 13
5 17 4 12 -4 -4 -7 1 -10 14 -7 11 2 20 -1 20 -6 0 -6 5 -7 10 -4 6 3 13 -1
16 -10 5 -12 9 -13 20 -4 11 9 14 9 14 0 0 -9 5 -9 20 -1 17 9 20 8 20 -7 0
-12 3 -14 8 -6 11 17 34 19 62 3 24 -13 24 -12 10 6 -8 10 -11 16 -6 12 5 -4
18 -3 29 3 15 9 18 8 11 -3 -6 -11 -5 -11 9 1 9 7 17 11 17 7 0 -3 9 3 20 14
11 11 20 24 20 29 0 5 6 12 13 14 10 4 10 6 0 6 -15 1 -18 31 -3 31 5 0 9 26
7 60 -1 33 2 60 6 60 5 0 6 4 3 9 -8 12 4 42 13 36 4 -2 7 9 7 26 0 24 -4 29
-23 29 -13 0 -23 5 -23 10 0 6 -5 10 -11 10 -5 0 -7 -6 -3 -12 6 -10 4 -10 -8
0 -22 18 -73 10 -72 -11 1 -9 -2 -15 -6 -12 -5 3 -11 1 -15 -5 -3 -5 -1 -10 5
-10 6 0 9 -4 6 -8 -3 -5 4 -16 14 -25 13 -11 20 -12 23 -4 2 7 4 -21 4 -61 0
-42 -4 -76 -11 -80 -6 -4 -11 -13 -11 -19 0 -7 -3 -13 -8 -13 -4 0 -20 -6 -36
-14 -25 -13 -31 -13 -50 0 -11 8 -26 12 -33 8 -7 -5 -8 -3 -3 6 5 8 3 11 -6 8
-16 -5 -30 7 -48 40 -7 12 -17 20 -23 16 -7 -4 -8 -3 -4 4 4 7 3 12 -2 12 -8
0 -20 28 -20 47 0 3 -5 9 -11 12 -6 4 -11 21 -13 39 -1 18 -5 32 -8 32 -4 0
-7 20 -9 45 -1 31 2 45 11 45 9 0 10 3 2 8 -13 9 -14 42 -1 42 5 0 7 7 3 15
-3 8 0 14 7 12 7 -1 11 4 9 11 -1 8 2 11 7 7 6 -3 15 4 21 15 6 11 16 17 22
14 7 -4 8 -3 4 4 -4 8 4 16 21 23 19 7 29 7 31 0 2 -6 12 -1 23 11 10 13 18
18 19 13 0 -9 17 -10 63 -6 5 1 5 6 1 13 -4 7 -3 8 5 4 6 -4 9 -12 6 -17 -4
-5 1 -9 9 -9 9 0 16 -4 16 -10 0 -5 7 -10 15 -10 8 0 15 -4 15 -10 0 -5 5 -9
12 -7 7 1 13 -4 14 -10 1 -7 3 -16 4 -20 1 -5 2 -11 1 -15 0 -5 2 -7 7 -7 19
3 33 -2 27 -10 -12 -20 14 -19 41 2 29 21 36 57 11 57 -6 0 -2 6 9 14 18 14
18 15 2 21 -10 4 -18 16 -18 26 0 10 -7 19 -15 19 -9 0 -18 7 -21 15 -4 8 -10
12 -15 9 -5 -3 -9 0 -9 5 0 6 -13 11 -30 11 -16 0 -30 5 -30 10 0 12 -22 9
-32 -5 -5 -6 -8 -6 -8 1 0 9 -31 11 -50 4 -3 -1 -9 -2 -13 -1 -40 7 -66 7 -61
0z"/>
<path d="M1447 6573 c-4 -3 -21 -6 -39 -5 -18 0 -39 -5 -47 -11 -12 -10 -13
-9 -7 3 4 9 1 8 -7 -2 -8 -10 -16 -18 -19 -18 -3 0 -22 -16 -42 -35 -21 -19
-34 -35 -30 -35 4 0 -3 -9 -16 -20 -13 -11 -18 -20 -11 -20 8 0 9 -5 1 -19 -6
-13 -7 -22 0 -26 5 -3 7 -12 3 -20 -3 -8 0 -15 7 -15 6 0 8 -4 5 -10 -8 -14
93 -110 117 -110 10 0 16 -4 13 -10 -3 -5 0 -10 9 -10 8 0 17 -6 19 -12 4 -10
6 -10 6 -1 1 7 17 -5 37 -25 25 -26 34 -43 31 -59 -2 -13 0 -23 6 -23 5 0 5
-6 -2 -13 -6 -8 -9 -16 -7 -18 2 -2 -14 -17 -36 -32 -22 -16 -37 -23 -33 -18
3 6 1 11 -4 11 -6 0 -11 -4 -11 -8 0 -4 -9 -8 -19 -8 -11 0 -17 4 -15 8 3 4 0
8 -5 8 -6 0 -11 8 -12 18 0 9 -3 12 -6 5 -3 -10 -7 -10 -18 0 -7 7 -11 15 -8
20 2 4 -1 7 -6 7 -6 0 -10 3 -9 8 5 18 -15 52 -30 52 -37 -1 -58 -37 -39 -67
5 -7 5 -18 1 -25 -4 -7 -3 -8 5 -4 9 6 10 0 5 -20 -5 -19 -4 -25 5 -20 6 4 11
2 11 -4 0 -17 26 -40 44 -40 9 0 16 -5 16 -11 0 -5 5 -7 10 -4 6 3 10 0 10 -7
0 -9 3 -9 8 -2 11 17 39 23 50 12 8 -8 15 -8 26 1 11 9 15 9 18 -1 4 -11 8
-11 20 0 9 7 20 12 24 10 13 -4 81 66 89 91 3 12 11 19 16 16 5 -4 5 3 0 18
-6 16 -6 28 2 36 8 8 7 11 -3 11 -10 0 -11 3 -3 11 11 11 5 61 -7 54 -5 -3 -6
5 -2 17 3 14 2 19 -6 14 -7 -4 -12 -2 -12 4 0 13 -57 70 -70 70 -6 0 -10 8
-10 18 0 13 -2 14 -9 4 -6 -11 -10 -10 -15 4 -3 9 -9 14 -13 11 -3 -4 -12 -2
-20 4 -7 6 -13 8 -13 5 0 -11 -46 38 -59 63 -26 48 19 122 60 100 12 -6 20 -5
24 1 5 8 11 8 19 1 7 -6 16 -8 20 -4 4 4 4 -1 0 -11 -5 -13 -4 -17 3 -13 6 4
16 0 23 -8 7 -8 9 -15 4 -15 -17 0 21 -20 39 -20 14 0 18 6 16 28 -2 15 0 33
4 40 5 7 3 12 -7 12 -9 0 -15 5 -13 12 1 7 -13 17 -31 23 -18 6 -29 15 -25 19
4 4 -1 4 -11 0 -14 -5 -17 -4 -12 4 8 13 3 16 -7 5z"/>
<path d="M1714 6572 c4 -7 1 -12 -9 -12 -9 0 -13 -4 -10 -10 3 -5 0 -10 -8
-10 -16 0 -29 -67 -15 -76 4 -3 4 -12 1 -21 -5 -12 -3 -14 7 -8 10 6 12 4 7
-9 -6 -14 -1 -16 28 -14 27 2 35 7 35 21 0 10 4 15 10 12 6 -3 7 1 4 9 -4 10
-1 16 9 16 8 0 18 6 20 13 4 9 8 8 16 -3 6 -8 11 -10 11 -5 0 13 65 13 65 0 0
-6 4 -16 8 -22 5 -8 3 -13 -4 -13 -9 0 -9 -3 0 -14 9 -11 9 -15 -1 -18 -10 -4
-11 -8 -1 -20 7 -8 10 -18 6 -21 -8 -9 -8 -131 1 -145 4 -6 -2 -15 -11 -21
-10 -6 -12 -11 -5 -11 6 0 12 -7 12 -15 0 -8 -6 -15 -12 -15 -9 0 -8 -4 2 -10
12 -8 12 -10 1 -10 -8 0 -11 -7 -8 -20 3 -11 0 -20 -6 -20 -9 0 -9 -2 0 -8 8
-5 9 -13 3 -22 -5 -9 -5 -19 1 -26 7 -9 4 -14 -11 -19 -11 -3 -18 -10 -15 -15
3 -4 -2 -11 -11 -14 -10 -4 -13 -2 -8 7 4 6 -2 4 -13 -6 -17 -15 -19 -22 -10
-41 9 -19 16 -22 33 -16 13 5 26 4 32 -2 8 -8 15 -8 27 2 11 9 15 9 15 1 0 -7
5 -9 10 -6 6 3 10 0 10 -7 0 -9 3 -9 8 -2 11 17 39 23 50 12 8 -8 16 -8 27 2
11 9 15 9 15 0 0 -6 6 -10 13 -7 6 2 11 9 10 15 -2 6 3 9 11 6 19 -7 28 22 10
36 -8 7 -14 19 -14 26 0 7 -6 11 -13 8 -20 -7 -57 27 -63 59 -2 16 -1 26 4 23
5 -3 6 12 2 34 -4 22 -3 43 1 46 5 3 6 10 3 16 -12 19 -13 68 -2 61 7 -4 7 0
1 12 -12 20 -6 55 9 55 6 0 5 7 -2 15 -7 8 -9 15 -4 15 10 0 11 51 0 68 -3 6
-2 13 3 17 6 3 8 12 5 19 -7 19 14 30 31 16 7 -6 16 -7 19 -2 6 11 36 9 55 -3
10 -6 12 -4 7 6 -4 8 0 5 9 -6 9 -11 18 -19 20 -17 11 5 26 1 21 -6 -6 -10 38
-62 53 -62 6 0 11 -6 11 -12 1 -7 10 -2 21 11 15 19 17 26 7 32 -7 5 -9 9 -4
9 6 0 2 6 -8 13 -16 12 -17 17 -6 36 6 13 8 21 2 17 -5 -3 -13 1 -16 10 -4 10
-2 13 7 9 6 -4 3 1 -7 9 -11 9 -16 16 -12 16 4 0 1 7 -8 15 -18 18 -43 19 -49
3 -4 -10 -6 -10 -6 0 -1 9 -5 10 -20 0 -15 -9 -23 -9 -35 2 -14 11 -16 11 -11
-1 4 -12 -3 -14 -35 -11 -26 3 -38 8 -34 16 3 6 -1 3 -9 -7 -9 -11 -18 -14
-21 -8 -4 6 -14 7 -23 4 -10 -4 -14 -2 -10 4 5 8 -28 11 -107 11 -63 0 -120 3
-127 7 -8 5 -10 4 -5 -3z"/>
<path d="M2530 6573 c0 -5 -14 -8 -31 -7 -40 3 -77 -17 -95 -50 -7 -15 -9 -24
-4 -21 6 4 10 -3 10 -14 0 -12 5 -20 12 -18 6 1 12 -9 14 -23 1 -14 5 -43 8
-65 10 -61 12 -125 4 -125 -4 0 -5 -7 -2 -15 4 -8 2 -15 -3 -15 -6 0 -9 -18
-8 -40 1 -23 -2 -43 -7 -46 -5 -3 -3 -13 4 -21 14 -17 13 -19 -5 -42 -9 -12
-9 -13 1 -7 19 12 14 -1 -13 -30 -14 -15 -25 -23 -25 -19 0 5 -7 0 -16 -11 -8
-10 -13 -12 -9 -4 4 8 -1 6 -9 -4 -19 -24 -20 -32 -4 -42 7 -5 8 -3 3 7 -8 12
-6 12 8 0 9 -7 17 -10 17 -7 0 4 8 2 18 -3 13 -7 22 -7 29 0 8 8 18 7 33 -1
15 -8 20 -8 16 -1 -4 6 0 11 9 11 10 0 13 -5 9 -12 -6 -10 -4 -10 7 -2 8 6 31
10 52 8 20 -1 37 2 37 7 0 6 6 9 13 8 6 -1 20 1 29 5 15 7 15 10 3 22 -7 8
-21 14 -29 14 -9 0 -16 5 -16 11 0 5 -6 7 -12 3 -7 -4 -10 -3 -5 1 4 5 -1 17
-10 28 -13 15 -14 18 -3 12 13 -8 13 -6 2 7 -7 9 -12 36 -11 60 2 24 0 49 -4
55 -8 14 23 48 46 49 9 1 17 -4 17 -12 0 -8 7 -14 16 -14 9 0 14 -6 12 -12 -3
-7 1 -19 9 -26 7 -8 11 -18 8 -23 -4 -5 -1 -9 4 -9 6 0 11 -9 11 -21 0 -11 5
-17 10 -14 6 3 10 -1 10 -9 0 -9 5 -16 11 -16 8 0 8 -5 -1 -15 -7 -8 -8 -15
-3 -15 6 0 33 -23 62 -50 29 -28 57 -48 62 -44 5 3 8 2 7 -3 -2 -4 1 -9 6 -10
5 -1 12 -7 17 -14 9 -15 49 -20 49 -6 0 5 8 3 17 -4 14 -12 16 -12 8 0 -6 11
-4 13 8 8 11 -4 17 -1 17 7 0 8 6 17 13 19 10 4 10 6 0 6 -7 1 -13 7 -13 14
-1 14 -49 51 -57 43 -7 -6 -43 32 -43 46 0 4 -6 8 -12 8 -7 0 -22 12 -32 27
-13 17 -14 24 -5 19 8 -4 5 0 -5 8 -11 9 -16 16 -12 16 4 0 0 7 -8 16 -9 8
-14 20 -11 25 4 5 1 9 -4 9 -6 0 -11 7 -11 15 0 8 -5 15 -12 15 -6 0 -8 3 -5
7 4 3 -2 12 -13 20 -21 15 -28 53 -9 53 13 0 54 49 54 65 0 5 5 13 10 17 6 5
5 8 -4 8 -10 0 -11 3 -2 14 7 9 8 17 2 20 -5 3 -7 15 -4 25 3 11 -4 28 -16 40
-12 12 -18 21 -15 21 4 0 1 7 -6 15 -7 8 -16 13 -20 10 -5 -3 -10 0 -12 5 -2
6 -13 12 -26 13 -12 0 -22 5 -22 9 0 5 -21 7 -47 6 -27 -1 -54 1 -60 5 -7 5
-13 4 -13 0z m72 -83 c6 0 19 -10 29 -22 11 -11 19 -17 20 -12 2 28 18 -38 18
-77 1 -34 -3 -49 -15 -53 -8 -3 -13 -10 -10 -14 3 -5 -10 -15 -29 -24 -19 -8
-32 -11 -29 -7 4 7 -21 13 -46 11 -3 0 -7 11 -8 24 -1 18 2 23 11 18 9 -6 9
-5 0 7 -15 18 -16 112 -1 103 7 -4 8 -2 4 4 -4 6 4 23 16 37 12 14 24 21 26
16 2 -6 8 -11 14 -11z"/>
<path d="M5197 6556 c4 -14 3 -17 -6 -12 -6 4 -19 2 -28 -6 -14 -11 -16 -11
-9 2 4 8 1 7 -7 -3 -9 -10 -18 -18 -21 -18 -24 3 -30 0 -16 -9 8 -5 11 -10 7
-10 -5 0 -1 -7 7 -16 9 -8 26 -14 38 -12 14 2 22 -2 21 -9 -2 -7 0 -12 5 -12
19 3 22 -3 12 -21 -8 -14 -8 -20 0 -20 8 0 8 -6 0 -20 -8 -14 -8 -20 0 -20 6
0 8 -5 5 -11 -11 -16 -12 -70 -3 -75 5 -3 4 -12 -3 -20 -9 -11 -9 -14 0 -14 9
0 9 -5 1 -20 -8 -14 -8 -20 0 -20 6 0 8 -5 5 -11 -11 -16 -12 -70 -3 -75 5 -3
4 -12 -3 -20 -8 -10 -8 -14 0 -14 7 0 8 -8 1 -24 -5 -13 -6 -27 -3 -30 4 -3 0
-6 -7 -6 -7 0 -10 -3 -7 -7 4 -3 -5 -14 -20 -24 -24 -16 -47 -69 -23 -54 5 3
10 1 10 -6 0 -10 3 -10 12 -1 8 8 15 9 25 0 10 -8 19 -6 35 8 12 11 18 13 14
7 -4 -7 -2 -13 3 -13 6 0 11 5 11 10 0 12 45 8 57 -5 5 -4 1 -5 -7 0 -8 5 -12
4 -7 0 12 -14 47 -13 47 2 0 7 8 13 18 13 14 0 15 -2 2 -10 -8 -5 -10 -10 -4
-10 6 0 14 3 17 7 12 11 58 13 51 1 -5 -7 4 -9 25 -6 17 2 31 1 31 -4 0 -5 5
-6 10 -3 6 4 7 11 4 17 -4 7 -2 8 5 4 6 -4 14 0 17 8 3 9 14 16 23 17 10 0 11
2 4 6 -7 2 -13 9 -13 14 0 6 5 7 11 3 7 -4 10 2 8 17 -2 13 0 30 4 37 5 7 3
12 -7 12 -9 0 -16 4 -16 10 0 16 -29 -1 -35 -21 -4 -11 -11 -17 -16 -14 -5 4
-9 -3 -9 -15 0 -12 -4 -19 -9 -16 -5 3 -14 -1 -21 -9 -10 -12 -16 -13 -26 -4
-11 9 -18 8 -29 -1 -14 -12 -20 -7 -15 15 1 6 -4 5 -11 -2 -13 -13 -42 -6 -33
8 3 5 -1 9 -9 9 -16 0 -30 24 -20 34 9 9 9 67 0 73 -4 3 -3 11 4 19 8 10 8 14
0 14 -8 0 -8 6 1 20 14 22 44 29 32 8 -6 -10 -4 -10 7 0 16 15 33 16 23 0 -5
-7 -3 -8 7 -2 22 13 43 11 57 -8 12 -17 47 -14 36 3 -3 5 0 9 6 9 6 0 9 4 6 8
-3 5 -6 34 -7 66 -2 37 -7 60 -16 63 -7 3 -10 9 -7 14 3 5 -2 6 -11 3 -9 -4
-13 -9 -11 -12 3 -3 0 -12 -7 -20 -9 -13 -9 -14 0 -8 9 5 11 2 7 -8 -7 -18 -5
-17 -59 -20 -53 -3 -64 2 -60 25 2 10 0 19 -5 19 -10 0 -7 40 4 59 5 8 4 16
-3 21 -9 5 -9 13 0 33 7 15 16 24 20 21 5 -3 9 1 9 8 0 19 38 20 64 2 13 -8
25 -12 28 -8 3 3 9 0 14 -7 5 -8 3 -10 -7 -5 -8 4 -6 1 4 -7 9 -8 17 -20 17
-28 0 -8 6 -6 16 7 8 10 13 13 9 7 -4 -8 0 -13 10 -13 9 0 13 5 10 10 -3 6 -3
10 2 10 17 0 30 46 19 71 -13 30 -25 39 -53 39 -13 0 -23 6 -24 13 0 6 -4 3
-9 -8 -6 -13 -9 -15 -9 -5 -1 12 -3 12 -9 2 -11 -17 -53 -24 -68 -11 -8 7 -14
6 -19 -2 -6 -8 -9 -8 -15 1 -9 15 -90 20 -90 6 0 -6 -7 -1 -15 10 -15 18 -15
18 -8 0z"/>
<path d="M3240 6530 c-6 -11 -8 -31 -6 -45 3 -14 1 -25 -4 -25 -4 0 -8 -6 -7
-12 1 -37 -4 -58 -13 -53 -5 3 -7 0 -4 -8 3 -8 0 -18 -5 -22 -6 -3 -9 -11 -6
-16 4 -5 2 -9 -4 -9 -6 0 -8 -6 -5 -14 3 -8 1 -17 -5 -21 -6 -3 -11 -19 -11
-35 0 -16 -4 -32 -10 -35 -15 -9 -12 -27 3 -20 6 4 4 0 -5 -8 -10 -8 -19 -29
-22 -48 -2 -18 -8 -35 -15 -37 -6 -2 -11 -10 -11 -18 0 -9 -4 -13 -9 -9 -6 3
-13 -10 -17 -30 -3 -19 -10 -33 -14 -30 -9 6 -40 -50 -40 -71 0 -7 5 -16 12
-20 7 -5 8 -3 3 7 -5 8 1 6 13 -5 18 -15 24 -16 37 -6 11 9 15 9 15 1 0 -7 5
-9 10 -6 6 3 10 0 10 -7 0 -9 3 -9 8 -2 12 17 39 23 51 11 8 -8 11 -7 11 4 0
12 2 12 9 0 7 -11 10 -9 16 8 4 12 11 19 18 15 8 -5 8 -2 0 7 -7 7 -13 21 -13
32 0 10 -4 16 -9 13 -5 -3 -15 2 -22 11 -12 14 -12 16 1 9 9 -5 8 -2 -2 7 -14
11 -15 16 -5 27 10 10 8 12 -8 6 -17 -5 -18 -4 -5 6 9 7 14 21 12 31 -2 9 1
17 7 17 6 0 8 12 4 32 -4 20 -3 29 4 25 6 -4 13 0 17 8 3 8 13 15 21 15 10 0
13 -5 9 -12 -5 -7 -3 -8 7 -2 22 13 51 16 43 3 -4 -8 0 -8 15 1 19 10 23 8 34
-20 8 -17 17 -27 21 -23 4 4 4 -1 0 -11 -4 -11 -3 -17 2 -14 5 4 10 -14 12
-38 2 -33 -1 -46 -13 -50 -8 -3 -12 -11 -8 -17 4 -6 1 -7 -7 -2 -18 11 -38
-19 -33 -49 3 -14 12 -27 20 -30 8 -3 11 -1 8 4 -3 6 1 10 10 10 10 0 13 -5 9
-12 -5 -8 -1 -8 10 1 10 9 20 11 24 5 4 -5 16 -9 27 -8 11 0 25 -3 31 -8 14
-10 46 1 38 13 -3 5 2 9 11 9 10 0 14 -5 10 -12 -4 -7 1 -4 9 6 11 13 16 15
16 6 0 -7 3 -10 8 -6 20 21 6 72 -30 110 -37 38 -42 47 -39 75 2 8 -2 10 -10
5 -9 -5 -10 -2 -6 9 3 10 2 17 -3 17 -5 0 -6 7 -3 17 4 11 3 14 -5 9 -11 -6
-18 26 -13 57 0 4 -3 7 -9 7 -5 0 -6 7 -3 17 4 11 3 14 -5 9 -8 -5 -12 2 -12
19 0 14 -4 24 -9 20 -10 -6 -26 33 -17 42 3 3 -1 15 -9 26 -11 16 -12 24 -2
36 10 12 9 13 -2 6 -10 -6 -13 -4 -9 6 5 13 -15 42 -24 34 -3 -4 -8 25 -11 63
0 7 -16 12 -43 12 -33 0 -46 -5 -54 -20z"/>
<path d="M3790 6522 c-13 -9 -21 -12 -17 -5 5 7 1 10 -11 6 -24 -6 -22 -42 4
-56 10 -5 20 -11 22 -12 2 -2 5 -15 8 -30 3 -19 1 -24 -7 -19 -8 5 -9 3 -3 -7
11 -19 13 -58 2 -65 -4 -3 -5 -11 -1 -17 13 -20 12 -117 -1 -110 -6 3 -6 0 1
-7 10 -11 9 -17 -4 -32 -9 -10 -11 -18 -5 -18 8 0 9 -8 1 -27 -6 -17 -6 -30 0
-36 12 -12 2 -39 -11 -31 -6 4 -5 -4 2 -16 8 -15 8 -20 1 -16 -6 4 -11 0 -11
-10 0 -10 -3 -15 -6 -11 -3 3 -14 -2 -24 -11 -16 -13 -17 -19 -7 -31 10 -12 9
-13 -3 -6 -13 8 -13 6 -2 -7 8 -9 20 -14 29 -11 8 3 19 0 24 -8 5 -8 9 -9 9
-3 0 13 35 25 45 16 11 -11 46 -8 56 5 9 9 15 10 24 3 10 -8 15 -8 21 1 5 8 3
9 -6 4 -9 -5 -11 -4 -6 4 6 8 12 9 20 2 17 -15 24 -5 18 24 -2 14 -11 25 -19
25 -8 0 -11 5 -8 10 3 6 2 10 -4 10 -5 0 -13 -5 -16 -11 -5 -6 -12 -4 -22 8
-8 10 -11 12 -7 4 5 -9 3 -12 -4 -7 -7 4 -12 15 -12 25 0 10 -3 21 -7 25 -11
10 -12 37 -2 30 5 -3 10 3 10 13 2 21 1 22 -5 57 -3 14 -1 26 4 26 6 0 6 9 1
23 -5 13 -5 30 -1 37 5 8 5 19 -1 26 -7 9 -3 17 12 28 12 8 25 13 29 11 10 -6
45 -78 42 -87 -1 -5 4 -8 12 -8 8 0 24 -20 36 -45 12 -25 25 -45 28 -45 4 0
13 -9 20 -21 8 -12 9 -18 3 -14 -6 3 -11 1 -11 -4 0 -6 7 -11 16 -11 8 0 12
-4 9 -10 -3 -5 1 -10 10 -10 9 0 14 -4 10 -10 -3 -5 2 -18 12 -28 10 -10 19
-25 21 -33 2 -8 11 -20 20 -27 9 -7 16 -19 14 -26 -3 -15 42 -41 56 -32 6 3
13 0 15 -6 3 -8 6 -6 6 5 1 12 6 16 14 11 6 -4 9 -4 5 1 -4 4 -2 15 5 23 10
13 9 14 -3 7 -12 -6 -13 -5 -2 6 15 16 16 59 1 59 -8 0 -8 4 0 14 9 11 9 15
-1 18 -11 4 -11 8 0 20 10 12 10 17 1 20 -9 3 -9 9 1 27 10 19 10 22 -2 15
-10 -6 -10 -4 1 10 8 9 14 35 13 57 -1 30 1 38 11 33 8 -6 8 -3 -1 9 -17 20
-7 101 11 91 9 -5 9 -4 0 6 -6 7 -9 19 -6 26 3 8 -1 22 -8 31 -8 9 -9 14 -3
10 6 -3 11 0 11 8 0 8 -4 12 -9 9 -4 -3 -8 4 -8 16 0 12 5 18 10 15 6 -3 10
-1 10 4 0 6 6 11 13 11 7 0 18 9 25 20 8 13 8 20 1 20 -5 0 -8 4 -4 9 3 5 1
12 -5 16 -5 3 -10 1 -10 -6 0 -8 -4 -8 -15 1 -12 10 -15 10 -15 0 0 -7 -8 -10
-20 -7 -11 3 -20 2 -20 -2 0 -9 -37 -7 -46 2 -4 4 -18 4 -32 0 -15 -3 -23 -2
-19 4 3 5 -3 9 -15 8 -21 -2 -48 -35 -28 -35 6 0 8 -4 5 -10 -3 -5 0 -7 8 -4
8 3 20 -2 27 -11 7 -8 19 -15 26 -15 8 0 13 -3 12 -7 0 -5 2 -15 5 -23 3 -8 8
-35 10 -60 3 -25 8 -56 12 -69 6 -19 5 -22 -5 -16 -10 6 -11 4 -4 -6 12 -19
16 -96 6 -103 -11 -6 -64 39 -55 48 3 3 0 6 -8 6 -16 0 -49 34 -49 50 0 6 -4
10 -10 10 -5 0 -9 3 -9 8 3 19 -2 33 -11 27 -5 -3 -10 0 -10 8 0 8 -7 18 -16
21 -8 3 -12 10 -9 16 3 5 -1 10 -10 10 -9 0 -13 5 -10 10 3 6 1 10 -5 10 -6 0
-8 5 -5 10 3 6 -1 13 -9 16 -9 3 -14 10 -11 14 3 5 -5 16 -17 24 -12 9 -19 16
-14 16 11 0 -46 45 -68 53 -10 4 -25 2 -34 -5 -12 -10 -14 -10 -8 0 9 15 7 15
-24 -6z"/>
<path d="M3252 5375 c-6 -11 -12 -19 -14 -17 -2 2 -16 -1 -31 -7 -17 -7 -25
-15 -21 -23 4 -7 3 -8 -5 -4 -6 4 -14 0 -17 -8 -3 -9 -10 -14 -14 -11 -5 3
-11 -4 -15 -15 -3 -11 -13 -20 -20 -20 -9 0 -12 -6 -9 -15 4 -9 0 -15 -7 -15
-12 0 -12 -2 -1 -9 11 -7 10 -9 -3 -15 -9 -3 -13 -10 -10 -16 3 -5 2 -10 -2
-10 -5 0 -8 -12 -7 -27 1 -38 -6 -64 -17 -57 -5 3 -9 0 -9 -6 0 -6 -4 -8 -10
-5 -5 3 -10 -1 -10 -10 0 -9 -4 -14 -9 -11 -5 3 -12 -1 -15 -10 -3 -8 -11 -12
-16 -9 -6 4 -9 2 -8 -4 2 -6 -13 -25 -32 -42 -19 -17 -29 -28 -22 -25 6 4 12
3 12 -2 0 -6 -7 -13 -16 -16 -8 -3 -13 -10 -10 -15 3 -5 -1 -12 -10 -15 -8 -3
-13 -10 -9 -15 3 -5 1 -12 -4 -16 -6 -3 -8 -12 -4 -20 3 -8 2 -23 -2 -32 -11
-26 -16 -46 -15 -63 0 -8 0 -23 1 -32 0 -10 4 -18 7 -18 4 0 8 -10 9 -22 1
-11 6 -24 12 -27 5 -3 11 -20 13 -36 2 -18 8 -29 16 -27 8 1 11 -1 8 -6 -3 -5
4 -18 14 -30 11 -12 20 -27 20 -33 0 -7 3 -10 6 -6 4 3 27 -15 52 -41 25 -26
42 -41 38 -34 -7 11 -4 11 15 0 13 -7 27 -17 30 -21 3 -5 9 -8 13 -8 19 3 27
0 22 -8 -4 -5 2 -8 11 -7 10 2 29 -4 43 -13 13 -9 21 -11 17 -5 -4 8 1 11 17
10 13 0 22 -4 19 -8 -4 -8 5 -9 75 -10 20 0 43 -6 51 -12 11 -8 13 -8 7 2 -6
10 1 12 28 9 22 -3 36 0 36 7 0 6 5 4 10 -4 5 -8 10 -10 10 -4 0 7 7 15 16 18
10 4 13 2 8 -7 -6 -9 -5 -9 8 0 8 7 18 10 21 6 4 -3 7 -1 7 5 0 6 9 9 20 7 11
-2 20 0 20 6 0 5 9 9 20 9 11 0 23 7 26 15 4 8 9 13 13 11 3 -2 15 2 26 10 10
8 15 14 10 14 -5 0 2 8 15 17 14 10 26 15 27 13 1 -3 9 4 18 15 9 11 13 14 9
6 -5 -9 -3 -12 4 -7 7 4 12 14 12 22 0 8 4 14 9 14 5 0 14 12 19 28 6 15 11
20 11 12 1 -15 41 57 41 75 0 5 7 23 15 39 9 16 13 31 10 34 -3 3 -5 -1 -5 -8
0 -7 -2 -11 -5 -8 -8 7 6 39 14 34 4 -3 7 4 7 15 0 10 -4 19 -8 19 -5 0 -4 8
1 18 6 10 6 24 1 32 -5 8 -6 18 -3 23 3 4 -3 18 -14 29 -12 14 -13 18 -3 13
13 -8 13 -7 0 11 -8 10 -19 22 -25 26 -5 4 -6 8 -1 8 5 0 -7 14 -27 31 -38 32
-49 56 -21 45 8 -3 12 -2 9 4 -3 6 3 10 14 10 10 0 21 -5 23 -12 3 -7 22 -12
44 -13 26 0 38 -4 36 -12 -1 -7 2 -13 8 -13 5 0 10 5 10 10 0 6 11 3 25 -6 17
-11 25 -12 25 -5 0 7 5 9 10 6 6 -4 7 -11 4 -17 -4 -6 -1 -9 7 -6 8 3 28 -1
45 -8 17 -7 34 -10 38 -7 3 4 6 0 6 -7 0 -7 3 -10 6 -7 4 3 15 2 25 -3 12 -7
19 -6 22 3 4 8 6 8 6 0 1 -13 51 6 51 20 0 5 4 6 10 2 5 -3 19 4 30 15 11 11
26 18 32 14 6 -4 9 -3 6 2 -2 5 6 19 19 31 13 12 23 19 23 15 0 -4 5 1 11 11
5 9 7 22 3 29 -5 7 -3 8 6 3 10 -6 12 -1 8 19 -3 14 -1 29 4 32 5 3 -5 19 -21
35 -17 16 -31 35 -31 42 0 8 -4 7 -10 -3 -5 -8 -10 -10 -10 -4 0 7 -20 14 -44
15 -24 2 -42 1 -40 -3 2 -3 -1 -8 -7 -10 -6 -2 -8 -14 -4 -31 4 -15 9 -26 12
-24 7 8 50 -40 56 -62 3 -12 1 -19 -4 -15 -5 3 -9 -6 -9 -20 0 -26 -40 -50
-48 -27 -2 6 -21 11 -43 11 -21 0 -39 5 -39 11 0 5 -4 8 -9 5 -5 -3 -22 1 -40
10 -17 8 -40 16 -51 17 -11 1 -20 8 -21 17 0 10 -2 11 -6 3 -3 -9 -10 -10 -22
-3 -10 5 -21 6 -25 3 -3 -3 -6 -1 -6 6 0 8 -8 11 -20 8 -11 -3 -23 -1 -26 5
-3 5 -15 8 -25 5 -11 -3 -19 -2 -19 3 0 11 -33 7 -42 -5 -5 -6 -8 -5 -8 3 0 9
-6 10 -17 4 -21 -10 -33 -10 -50 1 -8 5 -13 4 -13 -2 0 -6 -9 -11 -19 -11 -11
0 -23 -5 -27 -11 -3 -6 -14 -9 -24 -6 -10 3 -29 -6 -44 -20 -14 -13 -31 -21
-36 -18 -6 4 -9 3 -8 -2 2 -5 -7 -19 -19 -33 -13 -13 -23 -28 -23 -32 0 -5 -5
-6 -11 -2 -7 4 -10 1 -7 -7 3 -8 -2 -20 -9 -28 -8 -8 -12 -22 -10 -32 3 -11 1
-19 -5 -19 -5 0 -6 -4 -3 -10 3 -5 2 -10 -2 -10 -5 0 -9 -13 -8 -30 0 -16 3
-30 7 -30 5 0 8 -8 8 -17 1 -22 23 -53 39 -53 6 0 11 -5 11 -11 0 -5 4 -8 9
-4 5 3 12 1 16 -5 4 -6 11 -8 16 -4 5 3 17 0 26 -8 11 -8 14 -9 10 -1 -6 9 2
11 29 9 25 -2 43 3 55 15 9 9 21 14 25 11 4 -4 4 1 1 11 -4 10 -3 16 1 13 4
-2 14 -1 22 5 9 5 10 9 4 9 -7 0 -15 16 -18 35 -4 20 -11 33 -17 30 -5 -4 -9
0 -9 7 0 10 -2 10 -9 -1 -5 -8 -15 -11 -23 -8 -8 3 -21 1 -29 -4 -14 -8 -15
-12 -18 -44 -1 -18 -41 -20 -41 -2 0 9 -2 9 -8 -1 -6 -9 -12 -5 -20 13 -10 21
-10 25 0 19 8 -5 7 0 -2 11 -12 14 -12 19 -2 23 9 3 10 8 3 16 -8 9 4 27 41
67 28 30 48 47 43 39 -7 -12 -6 -13 7 -3 8 7 18 10 22 6 4 -4 22 -6 41 -5 19
2 35 -2 35 -8 0 -5 5 -10 11 -10 6 0 24 -13 41 -30 16 -16 26 -30 23 -30 -4 0
-1 -8 6 -17 12 -15 12 -16 -1 -8 -12 6 -13 5 -2 -6 15 -16 16 -33 0 -23 -7 5
-8 3 -2 -7 12 -20 16 -51 5 -45 -11 7 -9 -13 2 -31 5 -8 3 -13 -3 -13 -6 0
-10 -8 -8 -17 2 -11 -2 -17 -11 -15 -12 3 -12 0 -2 -12 10 -12 9 -16 -6 -24
-10 -6 -15 -13 -11 -17 7 -8 -67 -85 -82 -85 -6 0 -8 -4 -5 -10 3 -5 0 -10 -8
-10 -8 0 -20 -6 -26 -14 -7 -8 -24 -17 -39 -21 -15 -4 -30 -12 -34 -18 -5 -8
-8 -7 -8 3 0 12 -2 12 -9 2 -5 -8 -20 -15 -34 -15 -17 -1 -22 -6 -16 -13 6 -7
1 -10 -14 -9 -12 1 -30 -2 -39 -7 -12 -5 -18 -5 -18 1 0 6 -7 8 -17 4 -15 -6
-72 -7 -90 -3 -5 1 -16 1 -26 0 -10 -1 -30 6 -44 15 -14 10 -22 12 -19 6 12
-18 -16 -12 -31 7 -8 9 -12 11 -8 5 3 -7 1 -13 -5 -13 -6 0 -13 7 -16 15 -4 8
-15 15 -25 15 -10 0 -19 4 -19 10 0 5 -7 7 -15 4 -9 -4 -15 0 -15 10 0 9 -6
16 -14 16 -8 0 -18 9 -21 21 -4 11 -9 18 -12 15 -5 -4 -22 14 -63 68 -11 14
-11 18 -2 12 11 -6 11 -4 3 10 -26 49 -37 142 -18 155 4 3 9 16 10 27 1 12 5
22 10 22 4 0 5 5 2 10 -3 6 -1 10 5 10 6 0 9 4 6 9 -5 8 21 39 58 69 13 10 16
10 16 0 0 -10 2 -10 9 1 7 11 13 10 35 -4 14 -9 24 -21 21 -25 -3 -5 4 -11 15
-15 11 -3 20 -10 20 -15 0 -4 11 -10 25 -12 14 -3 25 -1 25 6 0 6 5 4 10 -4 7
-11 10 -11 10 -2 0 9 6 10 18 4 12 -6 23 -2 38 14 12 13 19 25 16 28 -3 3 0 6
7 6 7 0 11 13 9 34 -1 25 -9 38 -25 47 -13 7 -23 16 -23 21 0 4 -7 8 -15 8 -8
0 -15 4 -15 9 0 5 -7 12 -16 15 -8 3 -12 2 -9 -4 9 -14 -19 -12 -34 3 -11 10
-12 9 -6 -2 5 -9 3 -12 -6 -9 -8 3 -14 9 -14 14 0 5 -4 14 -8 21 -4 6 -1 18 7
26 8 8 13 17 10 20 -3 2 6 14 20 25 14 10 22 23 18 27 -4 5 1 5 11 2 10 -4 16
-3 13 2 -3 5 2 15 11 22 12 10 15 10 9 1 -8 -13 19 -13 42 1 7 5 12 3 12 -3 0
-6 4 -9 9 -6 5 4 12 0 14 -6 4 -9 6 -9 6 1 1 11 5 10 17 -5 8 -10 13 -13 9 -7
-4 9 -1 11 9 7 9 -3 16 -10 16 -16 0 -5 4 -7 9 -3 5 3 12 -4 16 -15 3 -11 11
-20 17 -20 6 0 9 -3 5 -6 -3 -4 -1 -12 6 -18 15 -15 57 -27 57 -17 0 5 9 18
19 30 14 16 17 29 11 49 -4 15 -13 26 -19 24 -7 -1 -10 1 -7 6 8 13 -22 52
-40 52 -8 0 -14 4 -14 9 0 6 -9 8 -20 6 -11 -2 -20 1 -20 6 0 6 -13 8 -30 5
-19 -2 -30 0 -30 7 0 7 -5 6 -10 -3 -5 -8 -10 -10 -10 -4 0 12 -28 12 -47 1
-6 -4 -13 -2 -15 5 -3 8 -8 5 -16 -7z"/>
<path d="M2936 4059 c3 -5 -5 -8 -18 -8 -24 1 -106 -37 -99 -47 1 -3 -6 -16
-17 -29 -34 -39 -52 -71 -45 -78 3 -4 -1 -7 -9 -7 -12 0 -14 -6 -10 -22 3 -14
1 -19 -6 -14 -7 4 -8 -2 -3 -22 5 -17 5 -36 -1 -47 -7 -12 -7 -16 0 -11 6 3
14 1 18 -5 3 -6 1 -15 -6 -19 -8 -5 -7 -9 5 -14 13 -5 15 -10 6 -19 -8 -10 -3
-21 20 -45 17 -18 28 -32 25 -32 -4 0 4 -11 16 -24 13 -13 26 -21 31 -19 4 2
7 -1 7 -7 0 -7 7 -10 15 -6 8 3 15 2 15 -2 0 -15 48 -30 59 -19 8 8 11 7 11
-2 0 -7 5 -9 13 -4 19 12 40 13 53 2 8 -7 17 -5 27 6 9 8 23 15 31 15 9 0 16
4 16 9 0 5 9 12 19 16 11 3 23 15 26 26 4 10 11 17 16 14 8 -6 13 8 10 28 0 4
3 7 9 7 6 0 9 3 9 8 -3 20 2 32 13 26 7 -5 8 -3 4 5 -5 7 0 21 11 33 10 12 13
19 7 15 -7 -4 -11 5 -11 23 0 18 4 27 11 23 7 -5 7 -2 0 8 -6 8 -10 22 -9 32
2 9 -1 17 -6 17 -5 0 -9 14 -9 31 0 20 -4 28 -12 23 -7 -5 -10 -2 -6 7 3 8
-18 37 -50 69 -31 30 -52 49 -48 42 7 -11 4 -11 -15 0 -13 7 -26 16 -29 19 -8
10 -100 8 -94 -2z m89 -79 c34 -17 65 -46 65 -60 0 -5 3 -10 8 -10 4 0 8 -34
9 -75 2 -47 -1 -74 -7 -70 -6 3 -10 1 -10 -4 0 -6 5 -11 10 -11 6 0 10 -5 10
-11 0 -5 -4 -8 -9 -4 -6 3 -13 -10 -17 -30 -3 -19 -11 -38 -17 -42 -6 -4 -7
-1 -2 8 5 8 -11 -6 -35 -31 -23 -25 -40 -40 -36 -33 4 8 -2 11 -21 10 -18 -1
-27 3 -25 11 1 6 -1 11 -5 11 -21 -3 -33 3 -33 17 0 8 -4 12 -10 9 -5 -3 -10
3 -10 15 0 12 -4 18 -10 15 -9 -6 -14 8 -11 28 0 4 -4 7 -10 7 -8 0 -8 5 1 15
10 12 10 15 0 15 -7 0 -10 7 -6 16 3 8 2 12 -4 9 -6 -3 -10 1 -10 10 0 10 5
13 12 9 7 -5 8 -3 3 6 -14 22 -12 90 2 90 7 0 13 3 12 8 -5 33 55 93 79 78 4
-3 14 -1 22 4 8 5 17 8 20 6 3 -1 18 -8 35 -16z"/>
<path d="M3352 4038 c-7 -7 -12 -9 -12 -4 0 4 -7 1 -15 -8 -18 -18 -20 -30 -2
-21 6 4 4 0 -5 -8 -23 -18 -23 -21 6 -50 14 -14 22 -27 19 -30 -8 -9 -9 -127
0 -127 10 0 4 -23 -8 -32 -6 -5 -6 -8 2 -8 12 0 12 -17 0 -37 -5 -8 -3 -13 4
-13 10 0 10 -3 2 -11 -6 -6 -9 -18 -6 -25 3 -8 0 -14 -7 -14 -7 0 -10 -7 -6
-16 3 -8 2 -13 -3 -10 -5 3 -12 -1 -15 -10 -3 -8 -10 -12 -16 -9 -5 3 -10 1
-10 -5 0 -6 -4 -9 -9 -6 -5 4 -8 -2 -7 -11 2 -10 12 -18 22 -18 10 0 25 -4 32
-8 7 -5 12 -3 12 4 0 9 3 9 14 0 10 -9 16 -9 21 -1 5 8 10 8 20 0 9 -8 15 -8
20 0 9 14 28 13 19 -2 -6 -10 -4 -10 7 0 7 6 21 12 30 12 19 0 20 31 1 38 -7
2 -10 8 -7 12 3 5 -2 7 -12 6 -16 -3 -18 5 -20 61 -2 49 0 62 10 57 9 -6 9 -5
0 7 -10 13 -8 15 12 15 14 0 25 -6 25 -14 0 -7 5 -10 10 -7 6 3 10 1 10 -4 0
-19 3 -25 22 -46 10 -10 16 -25 14 -32 -3 -7 2 -13 10 -13 8 0 13 -4 10 -9 -3
-5 6 -17 19 -27 14 -10 25 -24 25 -31 0 -7 6 -12 13 -11 6 2 11 -3 9 -10 -1
-7 5 -12 15 -10 10 2 17 -2 16 -7 -1 -6 16 -11 38 -11 31 -1 39 2 34 14 -3 8
0 21 6 28 9 11 8 14 -5 14 -9 0 -19 7 -22 15 -4 8 -10 13 -14 10 -5 -3 -11 4
-15 15 -3 11 -13 20 -21 20 -8 0 -14 7 -14 16 0 8 -4 12 -10 9 -5 -3 -10 1
-10 10 0 9 -4 14 -9 11 -5 -3 -12 10 -15 29 -4 20 -11 33 -15 30 -11 -6 -21
19 -21 53 1 31 23 65 35 54 5 -4 5 -2 2 4 -4 6 0 19 7 29 12 16 11 24 -5 52
-11 19 -19 41 -19 50 0 9 -3 13 -7 10 -3 -4 -12 -2 -19 4 -8 6 -21 9 -29 5 -8
-3 -15 -1 -15 5 0 6 -4 8 -9 5 -14 -9 -42 5 -35 16 4 6 0 7 -12 1 -22 -11 -54
-11 -70 -1 -6 4 -16 2 -22 -4z"/>
<path d="M3935 4039 c-4 -5 -12 -8 -18 -6 -7 2 -24 -2 -38 -9 -15 -7 -30 -10
-35 -6 -5 4 -2 -2 6 -12 8 -11 10 -17 3 -13 -6 4 -14 3 -17 -2 -4 -5 -2 -12 4
-16 6 -4 7 -11 4 -17 -4 -7 -2 -8 4 -4 7 4 14 -4 18 -21 3 -15 7 -32 8 -38 2
-5 -1 -20 -5 -32 -7 -18 -5 -21 9 -17 16 5 16 4 0 -9 -18 -14 -25 -33 -9 -23
5 3 9 -5 9 -19 0 -14 -4 -23 -8 -20 -3 2 -7 -2 -7 -10 0 -8 4 -12 9 -9 4 3 8
1 8 -5 0 -5 -5 -13 -10 -16 -8 -5 -7 -11 1 -21 9 -11 8 -14 -2 -14 -9 0 -10
-3 -4 -8 15 -10 17 -32 3 -32 -6 0 -8 -3 -5 -6 3 -4 -8 -20 -25 -36 -35 -33
-46 -60 -20 -51 11 5 13 3 7 -6 -6 -10 -3 -11 12 -2 14 7 23 7 30 0 8 -8 13
-7 17 0 10 15 56 14 56 -1 0 -9 3 -9 9 1 8 13 12 13 28 1 10 -8 14 -10 10 -5
-4 5 3 15 15 22 13 7 17 12 10 13 -7 0 -10 5 -7 10 3 6 -1 10 -10 10 -9 0 -24
7 -32 16 -14 13 -14 17 -2 25 10 6 10 9 2 9 -7 0 -13 7 -13 16 0 9 5 12 13 8
8 -5 8 -2 -2 9 -11 14 -11 20 0 34 10 11 10 14 2 9 -14 -8 -17 3 -5 19 10 14
46 19 37 6 -3 -6 1 -11 9 -11 9 0 16 -4 16 -9 0 -5 7 -17 16 -25 9 -10 11 -16
4 -16 -7 0 -5 -7 4 -16 9 -8 13 -21 9 -27 -4 -7 0 -8 11 -4 11 4 15 3 11 -4
-7 -11 31 -49 49 -49 6 0 4 -5 -4 -10 -13 -8 -12 -10 3 -10 9 0 17 -5 17 -10
0 -12 41 -30 84 -37 18 -3 26 -1 21 6 -3 6 -2 11 3 11 5 0 7 11 5 25 -3 13 -8
24 -12 23 -22 -2 -30 4 -24 20 3 9 3 14 -2 10 -11 -11 -45 10 -45 28 0 8 -4
12 -10 9 -5 -3 -10 1 -10 9 0 9 -4 16 -8 16 -12 0 -53 80 -46 91 3 5 0 9 -5 9
-14 0 -7 43 7 48 7 2 10 8 6 13 -3 5 3 9 13 9 14 0 15 2 4 9 -10 6 -10 10 -1
16 6 4 9 13 6 21 -3 7 -1 16 5 20 6 4 6 11 -2 20 -6 8 -8 14 -5 14 8 0 -4 12
-44 45 -15 13 -21 15 -16 5 4 -9 2 -8 -7 2 -8 10 -26 19 -41 20 -14 1 -26 7
-26 13 0 6 -3 7 -8 0 -10 -14 -46 -19 -37 -6 3 6 4 11 1 11 -3 0 -8 -5 -11
-11z"/>
<path d="M1580 4028 c0 -6 -11 -8 -25 -6 -14 3 -25 1 -25 -4 0 -5 -4 -7 -9 -3
-6 3 -8 -6 -5 -21 3 -18 1 -23 -7 -18 -8 5 -9 3 -4 -5 4 -7 0 -32 -10 -57 -9
-24 -14 -48 -10 -54 3 -5 -1 -10 -9 -10 -10 0 -13 -7 -11 -21 3 -12 2 -19 -2
-16 -3 4 -16 -15 -29 -41 -12 -26 -23 -41 -23 -34 -1 7 -5 10 -11 7 -5 -3 -10
1 -10 9 0 9 -6 16 -12 16 -10 0 -10 2 0 9 11 7 10 9 -3 15 -9 3 -13 10 -10 16
3 5 2 10 -3 10 -6 0 -13 12 -17 27 -3 15 -12 31 -18 35 -9 6 -9 8 0 8 7 0 10
7 7 15 -4 8 -11 12 -17 8 -5 -3 -7 -1 -3 5 3 6 0 17 -8 24 -10 11 -11 19 -4
33 8 13 7 16 -1 11 -10 -7 -16 6 -12 27 1 5 -8 6 -19 2 -13 -4 -20 -2 -20 7 0
10 -3 9 -10 -2 -5 -8 -10 -10 -10 -4 0 6 -12 10 -27 9 -22 -1 -27 -6 -28 -28
-1 -14 1 -24 5 -22 14 8 34 -26 37 -61 2 -25 -1 -33 -10 -29 -6 4 -3 -1 7 -9
13 -11 15 -16 6 -16 -7 0 -10 -3 -7 -7 4 -3 1 -13 -6 -21 -9 -13 -9 -14 1 -8
6 4 12 2 12 -3 0 -6 -5 -11 -11 -11 -5 0 -7 -4 -4 -10 3 -5 1 -10 -6 -10 -8 0
-8 -4 1 -15 10 -12 10 -15 -1 -15 -12 0 -12 -2 0 -9 9 -6 10 -11 2 -15 -6 -4
-8 -13 -4 -19 19 -31 -4 -98 -42 -123 l-25 -16 27 -24 c20 -17 30 -20 40 -12
7 5 20 8 28 4 8 -3 15 0 15 7 0 8 4 6 10 -3 8 -13 11 -12 25 5 9 11 14 15 11
8 -4 -6 -1 -15 5 -19 8 -4 9 -3 5 4 -4 7 -2 12 4 12 7 0 5 7 -4 16 -9 8 -16
20 -16 25 0 6 -4 7 -10 4 -5 -3 -11 -3 -11 2 -11 65 -13 148 -5 161 4 7 2 12
-6 12 -10 0 -10 2 0 9 8 4 13 11 13 15 -4 26 1 35 14 30 8 -4 12 -10 9 -15 -3
-5 -1 -9 5 -9 5 0 8 -9 6 -20 -2 -11 1 -20 6 -20 6 0 8 -4 4 -9 -3 -5 2 -16
10 -24 17 -18 20 -31 4 -22 -13 8 12 -37 26 -47 6 -5 4 -8 -5 -8 -13 0 -13 -2
-1 -9 8 -5 16 -17 18 -25 2 -9 4 -23 6 -31 2 -8 6 -18 10 -22 12 -11 37 -12
37 -2 0 6 4 8 9 5 5 -4 7 8 4 25 -3 20 -1 29 6 25 6 -4 8 2 6 14 -2 11 0 20 6
20 5 0 8 6 6 13 -1 6 4 11 12 9 12 -3 12 -1 0 14 -12 15 -12 17 0 9 11 -6 13
-4 8 8 -3 10 -2 17 3 17 6 0 9 3 9 8 -3 18 2 33 10 28 4 -3 8 2 8 12 0 51 4
67 12 53 7 -11 10 -11 15 0 3 8 4 -1 3 -19 -2 -18 0 -35 4 -38 5 -2 5 -12 2
-21 -4 -10 -2 -14 4 -10 6 4 13 0 17 -8 3 -8 0 -17 -6 -21 -7 -5 -8 -2 -3 6 5
9 4 11 -4 6 -8 -5 -9 -12 -2 -20 6 -7 6 -17 1 -26 -6 -8 -10 -23 -10 -34 0
-10 -11 -27 -25 -38 -28 -22 -32 -38 -9 -38 8 0 12 -5 8 -11 -4 -8 0 -8 15 0
17 9 22 9 27 -2 3 -9 20 -13 56 -11 50 2 77 19 58 38 -4 4 -6 16 -3 25 3 11 2
12 -4 4 -19 -26 -40 21 -42 92 -1 38 -7 76 -14 84 -10 12 -9 13 3 6 12 -7 13
-6 3 6 -14 18 -15 91 0 82 6 -4 7 -1 1 8 -13 22 -16 59 -4 59 6 0 8 5 5 10 -3
6 -3 10 2 10 4 0 16 7 27 15 17 13 17 15 2 30 -19 19 -56 28 -56 13z"/>
<path d="M2270 4025 c-1 -5 -2 -13 -2 -16 1 -3 -5 -6 -13 -6 -8 0 -11 5 -8 11
3 6 0 5 -8 -1 -7 -7 -17 -13 -22 -13 -4 0 -5 6 -1 13 5 8 2 8 -9 -2 -17 -13
-24 -37 -9 -27 5 3 14 -4 22 -14 8 -10 16 -17 20 -15 3 2 7 -7 8 -21 1 -13 -2
-24 -8 -24 -8 0 -8 -14 5 -108 3 -24 1 -31 -8 -26 -9 5 -9 4 0 -6 12 -13 6
-43 -7 -35 -5 3 -5 -8 0 -25 5 -18 5 -32 -1 -36 -6 -4 -6 -11 2 -20 9 -11 8
-15 -5 -20 -9 -3 -14 -9 -11 -13 2 -4 -5 -14 -15 -21 -23 -16 -9 -43 17 -33
12 5 14 3 8 -8 -8 -12 -6 -12 8 0 13 10 17 10 17 1 0 -9 3 -10 13 -1 10 8 17
7 27 -2 10 -9 11 -9 6 1 -6 9 -1 12 16 8 23 -4 41 9 46 32 1 7 -5 12 -14 12
-8 0 -12 5 -9 10 3 6 -3 10 -15 10 -12 0 -18 5 -15 10 3 6 -1 10 -9 10 -9 0
-16 8 -16 18 0 14 2 15 10 2 5 -8 10 -10 10 -4 0 6 -7 17 -15 24 -13 11 -13
14 2 27 10 8 12 12 5 8 -17 -9 -8 45 10 57 9 5 9 8 2 8 -14 0 -13 52 1 62 14
10 27 10 21 -1 -3 -4 2 -17 10 -27 9 -10 12 -13 8 -5 -5 9 -3 12 5 7 6 -4 8
-12 5 -18 -4 -6 8 -24 26 -39 18 -16 26 -29 19 -29 -10 -1 -9 -4 4 -11 9 -5
17 -17 17 -25 0 -9 5 -12 12 -8 7 5 8 3 3 -6 -4 -7 -3 -15 2 -19 16 -12 73
-95 73 -108 0 -7 5 -13 11 -13 5 0 8 -4 5 -8 -3 -5 4 -8 16 -7 20 1 58 55 39
55 -10 0 -9 19 2 38 5 7 3 12 -3 12 -7 0 -8 6 -2 18 5 9 8 32 7 50 -2 17 1 32
7 32 5 0 6 5 2 11 -3 6 0 15 7 20 10 6 11 9 2 9 -15 0 -17 36 -3 45 6 3 10 12
10 18 0 7 -4 6 -10 -3 -6 -10 -9 -5 -8 18 1 18 6 32 12 32 8 0 8 2 0 8 -22 14
-5 80 17 66 5 -3 6 3 2 12 -5 13 -3 15 7 9 8 -5 11 -3 8 6 -3 8 -10 13 -16 12
-7 -2 -9 4 -5 15 6 15 5 15 -10 3 -17 -14 -110 -23 -102 -10 3 3 -9 6 -25 5
-22 0 -30 -6 -30 -19 0 -10 4 -16 9 -13 5 3 12 -1 15 -10 3 -8 10 -12 16 -9 5
3 10 1 10 -5 0 -6 4 -8 10 -5 6 4 7 -1 3 -11 -4 -12 -3 -15 5 -10 9 5 12 -5
12 -34 0 -25 4 -39 10 -35 6 3 7 -1 4 -9 -3 -9 -1 -16 6 -16 7 0 5 -6 -5 -16
-11 -12 -13 -20 -6 -27 18 -18 13 -56 -6 -53 -9 2 -19 9 -22 17 -2 7 -21 30
-42 50 -21 20 -35 39 -32 43 4 3 1 6 -5 6 -7 0 -11 4 -9 8 1 4 -11 20 -27 35
-16 15 -25 27 -20 27 5 0 -2 10 -16 23 -14 12 -31 34 -39 49 -11 20 -18 25
-27 17 -8 -7 -14 -6 -17 3 -3 7 -6 9 -7 3z"/>
<path d="M4413 4022 c-13 -2 -23 -8 -23 -13 0 -5 -5 -8 -11 -6 -6 1 -13 -6
-14 -15 -2 -10 2 -18 8 -18 26 0 40 -20 47 -64 4 -27 3 -49 -4 -56 -7 -7 -6
-10 3 -10 7 0 9 -5 5 -12 -9 -14 -8 -174 1 -188 4 -6 1 -10 -4 -10 -6 0 -11
-7 -11 -15 0 -8 -4 -15 -10 -15 -5 0 -14 -8 -19 -19 -9 -16 -7 -18 20 -15 22
3 28 0 23 -9 -6 -9 -5 -9 7 0 12 10 18 10 29 0 10 -10 11 -9 5 3 -8 13 -7 13
8 1 13 -10 17 -10 17 -1 0 9 4 9 13 2 8 -7 18 -7 27 -2 9 5 19 5 27 -2 7 -6
13 -6 13 -1 0 11 41 10 60 -2 8 -5 11 -4 7 2 -4 6 4 14 18 17 14 4 23 11 20
16 -3 6 -1 10 4 10 6 0 11 13 11 29 0 25 -3 28 -25 23 -14 -2 -23 -8 -20 -12
2 -4 -4 -17 -14 -29 -12 -14 -22 -18 -26 -11 -4 7 -12 7 -26 0 -13 -8 -19 -7
-19 0 0 6 -5 8 -10 5 -6 -4 -8 -12 -4 -18 3 -7 -1 -4 -9 5 -8 10 -17 15 -20
11 -4 -3 -7 1 -7 10 0 9 -4 17 -10 17 -6 0 -6 9 0 26 7 18 7 23 -2 18 -8 -5
-9 0 -6 14 4 12 2 20 -3 16 -5 -3 -9 0 -9 5 0 6 5 11 10 11 6 0 9 6 8 13 -2 6
4 12 12 12 8 0 21 4 28 8 7 5 12 3 12 -5 0 -9 3 -9 10 2 6 9 10 11 10 3 0 -7
7 -10 17 -6 11 4 14 3 9 -5 -4 -7 -2 -12 4 -12 6 0 13 7 16 15 4 8 11 12 18 8
6 -4 5 1 -3 11 -13 15 -13 19 0 27 11 7 11 9 0 9 -11 0 -11 3 -1 15 8 10 9 15
2 15 -6 0 -9 6 -6 14 3 7 -3 16 -13 20 -9 4 -15 4 -11 1 4 -4 -3 -17 -14 -30
-16 -19 -25 -22 -39 -15 -12 7 -20 6 -25 -1 -5 -8 -10 -6 -16 5 -5 9 -6 21 -3
26 3 6 1 10 -6 10 -7 0 -8 4 -2 13 5 6 8 29 8 49 -1 20 2 35 7 32 4 -3 8 -1 8
4 0 16 59 7 72 -11 7 -9 25 -18 39 -21 25 -4 26 -2 26 43 0 43 -2 48 -21 46
-11 0 -29 3 -40 8 -14 7 -16 6 -11 -4 6 -9 3 -11 -8 -6 -10 3 -17 2 -17 -3 0
-6 -5 -10 -11 -10 -5 0 -7 6 -3 13 6 10 4 10 -7 0 -16 -15 -33 -17 -24 -3 3 6
0 10 -7 11 -7 0 -26 1 -43 3 -16 1 -40 0 -52 -2z"/>
<path d="M4909 4025 c-3 -2 -21 -5 -40 -7 -18 -1 -38 -7 -44 -13 -13 -13 -16
-47 -4 -39 5 3 9 1 9 -3 0 -5 10 -13 22 -18 21 -10 34 -55 15 -55 -6 0 -6 -5
-1 -12 5 -7 8 -26 7 -43 -5 -47 -5 -48 2 -78 3 -18 2 -26 -5 -22 -5 3 -7 0 -5
-7 13 -33 11 -90 -2 -95 -8 -3 -12 -12 -9 -20 4 -9 2 -11 -6 -7 -8 5 -9 2 -5
-9 4 -10 1 -17 -6 -17 -6 0 0 -8 13 -17 14 -10 29 -17 34 -15 4 1 15 -3 24
-10 12 -10 14 -10 8 0 -4 7 -2 12 6 12 8 0 20 -6 27 -12 8 -7 11 -8 9 -3 -3 6
0 16 8 23 11 10 14 10 14 0 0 -8 3 -9 8 -3 11 15 32 17 32 3 0 -9 3 -9 9 1 6
9 30 15 68 16 32 2 63 3 68 4 11 1 14 61 3 61 -3 0 -14 3 -24 7 -12 4 -15 3
-10 -5 5 -8 2 -10 -8 -6 -11 4 -16 0 -16 -11 0 -12 -5 -15 -20 -10 -12 4 -20
2 -20 -6 0 -9 -4 -8 -15 1 -12 10 -15 10 -16 -1 0 -8 -4 -5 -9 6 -5 11 -9 15
-9 9 -1 -7 -12 -14 -25 -16 -17 -4 -23 -1 -19 9 3 7 -2 13 -11 13 -9 0 -16 5
-16 10 0 6 6 10 13 10 8 0 9 3 1 8 -13 9 -15 43 -2 59 5 7 5 14 -1 18 -14 8
-10 55 4 55 5 0 3 5 -5 10 -13 8 -13 13 -2 31 8 11 9 18 4 15 -14 -8 -22 32
-12 59 5 13 6 26 3 29 -6 6 12 10 30 7 4 0 7 4 7 10 0 6 9 8 20 4 18 -6 20 -2
18 24 -1 16 -6 27 -10 25 -4 -3 -8 0 -8 6 0 6 -4 9 -9 6 -5 -4 -12 0 -15 6 -5
10 -7 10 -12 1 -4 -8 -13 -9 -30 -2 -29 10 -29 10 -35 4z"/>
<path d="M5285 4019 c-11 -4 -14 -8 -7 -8 7 -1 10 -6 7 -12 -4 -6 -14 -8 -24
-5 -10 4 -8 -1 7 -13 12 -11 27 -21 32 -23 8 -2 17 -268 10 -303 -1 -5 -2 -17
-1 -26 1 -9 -5 -19 -14 -22 -8 -4 -15 -11 -15 -17 0 -6 4 -8 10 -5 6 4 7 -1 3
-10 -3 -10 0 -21 8 -26 20 -12 31 -11 23 3 -5 7 -3 8 6 3 20 -13 74 -14 82 -2
10 16 51 20 42 5 -6 -9 -3 -9 9 0 9 8 21 11 26 8 5 -4 12 -2 15 3 3 5 26 8 50
7 31 -2 48 2 58 14 19 24 20 40 2 40 -8 0 -13 4 -10 8 3 5 -1 9 -9 9 -8 0 -15
-4 -15 -9 0 -4 -7 -8 -15 -8 -8 0 -15 -4 -15 -10 0 -14 -63 -12 -79 3 -10 8
-12 8 -7 0 3 -6 2 -14 -4 -18 -5 -3 -10 -1 -10 5 0 7 -7 10 -15 6 -9 -3 -15 0
-15 8 0 8 -6 17 -12 19 -7 3 -8 6 -3 6 6 1 9 18 7 41 -2 22 -7 38 -11 36 -4
-3 -7 36 -8 85 -1 65 2 87 10 83 9 -5 9 -4 0 6 -8 9 -7 17 5 32 20 23 59 47
48 29 -4 -6 -2 -11 4 -11 7 0 10 13 8 33 -2 21 -8 31 -17 29 -8 -2 -18 3 -22
10 -7 10 -9 10 -9 -2 0 -13 -1 -13 -10 0 -6 9 -13 11 -17 5 -9 -11 -75 -14
-83 -4 -3 3 -14 3 -25 -2z"/>
<path d="M1765 3854 c-10 -7 -15 -20 -12 -29 4 -8 1 -15 -6 -15 -7 -1 -5 -6 5
-14 10 -7 15 -16 11 -19 -3 -4 -1 -7 6 -7 7 0 11 -7 8 -15 -4 -8 -2 -17 3 -20
6 -4 10 -11 10 -16 0 -6 -4 -8 -8 -5 -4 2 -8 -4 -8 -15 0 -10 3 -19 7 -19 11
0 -3 -51 -15 -56 -7 -3 -13 -21 -13 -42 -1 -20 0 -31 3 -24 7 15 34 16 34 1 0
-8 4 -8 13 -2 6 6 26 9 42 8 25 -1 30 3 31 22 1 13 -2 23 -8 23 -5 0 -6 5 -3
10 3 6 2 10 -3 10 -6 0 -13 7 -16 16 -3 8 -2 12 4 9 6 -3 10 -2 10 4 0 5 -6
12 -12 14 -10 4 -9 8 2 16 8 6 10 11 4 11 -12 0 -12 49 1 69 6 10 4 12 -6 6
-12 -8 -12 -6 0 8 7 9 17 14 22 11 13 -8 39 21 39 43 0 15 -2 16 -10 3 -6 -10
-10 -11 -10 -2 0 7 -15 12 -40 12 -22 0 -40 4 -40 8 0 13 -25 10 -45 -4z"/>
<path d="M3198 2332 c-7 -9 -8 -13 -3 -10 12 7 37 -17 28 -26 -4 -3 1 -6 10
-6 10 0 17 -4 17 -9 0 -5 9 -11 20 -14 20 -5 37 -33 27 -43 -3 -4 -20 1 -38
10 -18 9 -40 16 -51 16 -10 0 -18 5 -18 10 0 6 -6 10 -14 10 -8 0 -16 5 -18
10 -2 6 -13 12 -26 15 -17 3 -22 -1 -22 -16 0 -11 7 -22 15 -25 8 -4 15 -14
15 -23 0 -14 2 -14 10 -1 9 13 14 7 11 -12 0 -5 6 -8 15 -8 8 0 13 -4 9 -9 -3
-5 4 -12 15 -16 11 -4 20 -15 20 -27 0 -20 -1 -20 -26 -3 -15 9 -23 12 -20 6
4 -6 1 -11 -7 -11 -12 0 -13 -4 -4 -24 7 -13 15 -22 18 -20 4 2 17 -5 30 -15
13 -10 31 -17 40 -16 10 2 15 -4 13 -19 -1 -11 7 -36 17 -54 10 -18 19 -43 19
-55 0 -44 4 -57 17 -57 17 0 17 -17 1 -23 -10 -4 -10 -6 0 -6 6 -1 12 -10 12
-21 0 -11 3 -20 8 -20 4 0 7 -16 8 -35 0 -18 -2 -32 -6 -30 -3 2 -5 -10 -4
-26 1 -16 -4 -35 -11 -42 -7 -8 -15 -22 -17 -33 -2 -10 -10 -18 -16 -16 -7 1
-12 -7 -12 -19 0 -11 -4 -17 -10 -14 -5 3 -10 0 -10 -7 0 -8 -3 -9 -8 -3 -9
12 -41 21 -89 24 -7 1 -13 8 -13 17 0 14 -2 14 -15 1 -8 -9 -24 -13 -35 -10
-16 4 -20 0 -21 -18 -1 -13 -1 -27 0 -31 2 -12 -37 -10 -60 2 -23 13 -24 2 -3
-28 9 -13 14 -26 11 -28 -9 -9 -46 20 -51 41 -5 17 -8 18 -16 5 -13 -20 -13
-80 0 -80 6 0 10 -7 10 -16 0 -9 -5 -13 -12 -9 -7 4 -5 0 6 -9 10 -8 15 -19
12 -24 -3 -5 8 -20 24 -32 17 -13 30 -29 30 -36 0 -8 6 -14 14 -14 7 0 20 -8
27 -17 8 -10 9 -14 2 -10 -6 4 -15 2 -18 -4 -4 -5 -14 -8 -22 -5 -8 3 -11 1
-8 -4 3 -6 1 -10 -5 -10 -6 0 -8 -5 -5 -10 3 -6 -5 -14 -19 -20 -14 -5 -26
-14 -26 -20 0 -6 -4 -9 -9 -5 -5 3 -12 1 -16 -5 -4 -6 -11 -8 -16 -5 -5 4 -9
1 -9 -5 0 -6 -4 -8 -10 -5 -5 3 -10 1 -10 -5 0 -6 -4 -8 -10 -5 -11 7 -12 4
-14 -35 -1 -27 -17 -51 -28 -43 -5 2 -8 -1 -8 -7 0 -6 -4 -9 -9 -5 -5 3 -13
-5 -17 -17 -8 -26 -29 -49 -38 -41 -3 3 -12 1 -19 -5 -8 -7 -18 -8 -22 -4 -5
4 -6 3 -3 -3 3 -5 0 -16 -8 -23 -8 -7 -14 -11 -14 -8 0 3 -13 0 -30 -5 -16 -6
-28 -14 -26 -18 3 -4 -4 -8 -15 -8 -37 -3 -60 -35 -28 -39 5 -1 10 -2 12 -4 7
-6 45 -5 42 1 -3 4 15 5 40 4 25 -2 45 1 45 6 0 5 10 9 23 9 13 0 28 5 35 12
9 9 12 9 12 -2 0 -13 2 -13 10 0 5 8 15 16 22 16 7 1 20 2 28 3 13 1 13 2 0
12 -12 8 -12 10 5 8 11 -1 28 1 37 5 9 4 23 9 32 10 8 1 19 5 22 9 4 4 18 7
31 7 13 0 22 4 19 8 -3 5 26 8 64 8 40 -1 70 -5 70 -11 0 -5 4 -4 9 3 10 16
31 12 51 -8 8 -8 29 -17 45 -19 17 -1 33 -8 36 -13 4 -6 11 -8 17 -4 5 3 12
-4 15 -15 3 -12 10 -18 16 -14 13 7 9 -30 -4 -42 -4 -5 -5 -1 0 7 4 8 -1 6
-12 -5 -11 -11 -19 -22 -17 -25 1 -3 -7 -7 -18 -7 -23 -2 -38 -14 -23 -20 26
-9 37 -22 30 -33 -6 -9 -9 -9 -16 1 -6 10 -9 11 -9 2 0 -7 -7 -13 -16 -13 -23
0 -11 -24 14 -28 12 -2 19 -8 16 -14 -4 -7 0 -7 12 -1 11 6 31 9 46 8 15 -1
25 2 22 7 -5 7 10 12 29 9 4 0 7 5 7 12 0 8 11 20 25 27 13 7 22 17 19 22 -3
5 -2 8 3 7 25 -6 93 48 93 75 0 9 5 16 11 16 6 0 8 7 5 16 -3 8 -2 12 4 9 6
-3 10 3 10 14 0 11 5 23 10 26 6 4 8 11 5 16 -4 5 -1 9 4 9 6 0 11 7 11 15 0
8 5 15 11 15 6 0 9 7 5 15 -3 8 -2 15 2 15 5 0 18 9 30 21 12 11 27 17 32 14
6 -4 13 1 16 10 4 9 13 14 21 11 9 -4 11 -2 7 6 -5 8 -2 9 9 5 10 -4 17 -1 17
5 0 6 3 8 7 5 3 -4 11 -2 18 3 6 5 20 11 31 13 10 2 27 7 36 11 9 4 22 5 28 1
5 -3 10 -2 10 4 0 6 6 8 14 5 8 -3 17 0 21 6 5 8 11 8 21 -1 9 -7 14 -8 13 -3
-4 21 2 28 11 14 9 -13 12 -13 20 1 6 11 20 15 40 13 17 -2 29 0 26 5 -7 11
22 23 35 15 5 -3 9 0 9 7 0 7 3 9 7 6 3 -4 11 -3 17 2 11 9 44 18 94 26 12 2
22 -2 22 -8 0 -8 4 -7 9 2 5 8 19 12 33 9 18 -3 24 0 25 14 1 10 -4 18 -11 18
-13 0 -30 35 -27 53 1 5 -3 6 -9 2 -5 -3 -10 -1 -10 5 0 7 -6 8 -19 0 -14 -7
-22 -7 -26 0 -5 8 -11 8 -19 1 -7 -6 -15 -8 -18 -5 -5 5 -49 15 -78 18 -8 0
-20 6 -26 12 -7 6 -29 9 -50 8 -22 -2 -41 2 -46 9 -6 9 -8 9 -8 0 0 -7 -5 -13
-11 -13 -5 0 -7 6 -3 13 6 8 3 8 -9 -2 -9 -7 -23 -11 -32 -8 -8 4 -17 1 -21
-4 -3 -6 -15 -9 -25 -6 -11 3 -19 2 -19 -2 0 -4 -7 -8 -15 -8 -9 0 -11 5 -7
11 5 6 9 22 10 36 1 13 7 29 14 35 7 5 13 16 14 23 2 29 5 33 16 26 7 -4 8 -3
4 5 -4 6 -2 19 6 28 11 14 11 16 -1 8 -8 -5 -4 7 9 25 13 18 17 30 9 25 -8 -5
-7 0 4 12 14 16 15 22 5 27 -8 4 -9 8 -2 11 6 3 8 19 6 36 -3 23 -7 28 -14 18
-7 -10 -8 -8 -5 8 3 12 -1 27 -8 33 -12 10 -29 66 -26 83 1 5 -3 6 -8 3 -5 -4
-19 6 -30 20 -12 15 -21 21 -21 14 0 -18 -11 -6 -15 17 -1 10 -8 17 -15 15 -6
-1 -9 2 -5 8 3 5 -7 22 -22 37 -15 14 -21 23 -13 19 8 -4 6 0 -4 8 -11 9 -15
16 -8 16 6 0 9 7 5 16 -5 13 -7 13 -14 2 -8 -13 -10 -11 -13 15 -1 6 -7 11
-14 9 -7 -1 -12 7 -12 19 0 11 -4 18 -9 15 -12 -8 -23 22 -14 37 3 7 3 9 -2 5
-4 -4 -19 5 -33 20 -13 15 -21 21 -16 13 4 -8 -9 -2 -29 13 -38 29 -57 28 -54
-4 1 -10 5 -16 9 -14 4 3 8 0 8 -5 0 -6 0 -14 0 -18 0 -5 -9 -9 -19 -9 -11 -1
-19 4 -18 9 1 6 -7 11 -18 11 -20 0 -55 31 -55 48 0 4 -5 8 -11 8 -7 0 -18 8
-26 18 -8 10 -11 11 -7 2 7 -12 5 -13 -8 -3 -8 7 -18 10 -22 6 -4 -4 -4 0 -1
9 5 13 2 16 -14 13 -12 -2 -21 0 -21 4 0 5 -13 14 -30 21 -16 7 -30 15 -30 19
0 14 -39 9 -52 -7z"/>
</g>
</svg>
